<?xml version="1.0" encoding="UTF-8" ?>
<!DOCTYPE svg PUBLIC "-//W3C//DTD SVG 1.1//EN" "http://www.w3.org/Graphics/SVG/1.1/DTD/svg11.dtd">
<svg width="512pt" height="512pt" viewBox="0 0 512 512" version="1.1" xmlns="http://www.w3.org/2000/svg">
<path fill="#ffffff" d=" M 0.00 0.00 L 512.00 0.00 L 512.00 512.00 L 0.00 512.00 L 0.00 0.00 Z" />
<path fill="#a5a5a5" d=" M 246.85 0.61 C 261.18 -0.47 275.49 1.32 289.69 2.93 C 346.02 10.15 399.56 37.14 438.97 78.02 C 473.07 112.69 496.67 157.49 506.29 205.14 C 508.00 214.38 509.73 223.67 510.14 233.07 C 512.33 244.55 511.52 256.33 511.57 267.96 C 511.87 272.74 509.75 277.26 510.02 282.05 C 506.93 313.17 497.96 343.72 483.74 371.60 C 466.99 404.70 442.78 433.93 413.67 456.88 C 377.39 485.47 333.21 503.99 287.33 509.44 C 282.98 510.44 278.42 509.60 274.11 510.88 C 269.52 512.34 264.71 511.39 260.00 511.64 C 254.67 511.77 249.35 511.35 244.02 511.55 C 239.25 511.86 234.76 509.57 229.98 510.02 C 197.34 506.85 165.36 497.05 136.39 481.67 C 89.75 456.99 51.14 417.46 27.57 370.24 C 14.69 344.55 6.16 316.65 2.68 288.12 C 1.75 282.77 2.00 277.29 0.72 271.99 C 0.32 263.31 0.50 254.63 0.19 245.96 C 0.15 240.58 1.99 235.41 1.98 230.04 C 7.42 174.21 32.21 120.46 71.08 80.01 C 112.72 35.92 170.64 7.46 231.05 1.97 C 236.36 1.91 241.51 0.28 246.85 0.61 Z" />
<path fill="#ffffff" d=" M 174.83 33.01 C 190.13 27.30 206.11 23.69 222.18 20.99 C 218.71 25.57 214.37 29.40 210.79 33.89 C 193.03 54.49 177.74 77.24 165.42 101.49 C 145.45 93.26 126.87 81.97 109.66 68.98 C 129.52 53.99 151.34 41.40 174.83 33.01 Z" />
<path fill="#ffffff" d=" M 287.90 20.94 C 319.27 24.97 349.71 35.74 376.91 51.84 C 385.79 56.95 393.98 63.11 402.35 68.96 C 384.99 81.99 366.34 93.49 346.15 101.64 C 330.81 72.08 311.12 44.80 287.90 20.94 Z" />
<path fill="#ffffff" d=" M 182.11 107.72 C 198.64 75.69 220.69 46.51 246.97 21.85 C 246.99 54.23 247.01 86.60 246.96 118.98 C 239.52 119.42 232.20 118.20 224.84 117.43 C 210.33 115.50 196.05 112.14 182.11 107.72 Z" />
<path fill="#ffffff" d=" M 265.17 23.20 C 290.80 47.84 312.87 76.27 329.44 107.78 C 313.11 113.05 296.22 116.66 279.13 118.27 C 274.49 119.29 269.74 118.95 265.03 118.97 C 265.10 87.05 264.82 55.12 265.17 23.20 Z" />
<path fill="#ffffff" d=" M 91.33 85.34 C 92.97 83.93 94.25 82.02 96.18 80.97 C 115.06 95.61 135.52 108.48 157.77 117.34 C 145.27 145.56 136.39 175.44 131.96 206.00 C 130.56 214.65 129.99 223.36 128.96 232.03 C 129.06 237.07 128.95 242.10 128.35 247.11 C 97.25 246.84 66.14 247.07 35.03 246.99 C 29.79 247.07 24.53 246.80 19.30 247.16 C 18.29 240.02 19.96 232.94 20.52 225.85 C 27.20 172.78 52.56 122.23 91.33 85.34 Z" />
<path fill="#ffffff" d=" M 411.86 83.86 C 413.31 83.03 414.65 80.63 416.46 81.28 C 452.21 113.86 477.57 157.70 487.83 204.99 C 490.48 216.52 491.87 228.28 492.99 240.03 C 493.01 242.36 492.94 244.69 492.92 247.02 C 456.50 247.05 420.08 246.83 383.67 247.13 C 382.49 240.37 383.70 233.46 382.36 226.74 C 379.61 192.00 370.86 157.76 357.40 125.62 C 356.25 122.90 354.88 120.27 354.03 117.44 C 374.79 109.16 394.15 97.47 411.86 83.86 Z" />
<path fill="#ffffff" d=" M 174.27 123.95 C 193.05 129.79 212.36 134.31 231.98 136.02 C 237.02 135.87 241.94 137.35 246.98 137.06 C 246.99 170.37 246.99 203.68 246.98 236.99 C 246.96 240.37 247.16 243.77 246.69 247.14 C 215.48 246.79 184.25 247.12 153.03 246.97 C 150.79 246.94 148.55 247.01 146.32 247.19 C 145.45 242.46 146.50 237.74 146.98 233.05 C 146.88 225.56 148.30 218.19 149.11 210.77 C 153.42 180.85 161.79 151.49 174.27 123.95 Z" />
<path fill="#ffffff" d=" M 265.03 137.06 C 289.64 136.05 314.12 131.62 337.55 123.94 C 352.41 157.47 362.14 193.41 364.97 230.00 C 364.85 235.76 366.83 241.47 365.64 247.24 C 361.77 246.80 357.86 247.03 353.98 247.00 C 324.38 246.97 294.76 247.04 265.18 246.96 C 264.80 210.34 265.10 173.69 265.03 137.06 Z" />
<path fill="#ffffff" d=" M 19.04 265.03 C 50.02 264.99 80.99 265.03 111.96 265.01 C 117.48 265.14 123.03 264.72 128.54 265.30 C 129.29 272.03 128.42 278.85 129.60 285.53 C 132.68 323.73 142.81 361.30 158.42 396.30 C 138.28 405.04 119.37 416.66 102.34 430.51 C 101.00 431.34 99.77 433.28 98.04 432.85 C 56.21 395.84 28.09 343.55 20.84 288.11 C 19.86 280.45 18.66 272.78 19.04 265.03 Z" />
<path fill="#ffffff" d=" M 146.03 265.02 C 179.69 265.02 213.34 264.99 246.99 265.04 C 246.98 301.08 246.98 337.13 246.99 373.17 C 247.04 374.06 247.23 374.92 247.58 375.76 C 244.00 374.87 240.41 376.03 236.80 375.94 C 216.66 377.72 196.65 381.86 177.54 388.58 C 176.51 388.84 175.47 388.97 174.40 388.97 C 160.14 356.59 150.70 322.02 147.38 286.78 C 147.15 279.51 145.75 272.31 146.03 265.02 Z" />
<path fill="#ffffff" d=" M 265.02 265.04 C 298.67 264.98 332.31 265.03 365.96 265.02 C 366.50 270.97 364.87 276.80 364.96 282.74 C 361.90 318.89 352.55 354.50 337.66 387.59 C 314.26 379.91 289.74 375.41 265.14 375.00 C 264.85 338.35 265.09 301.69 265.02 265.04 Z" />
<path fill="#ffffff" d=" M 383.44 265.30 C 399.24 264.64 415.09 265.19 430.91 265.01 C 451.60 265.02 472.29 265.00 492.97 265.02 C 493.38 270.74 492.49 276.37 491.96 282.03 C 487.56 322.48 472.51 361.73 448.63 394.68 C 439.20 407.87 428.24 419.90 416.41 430.96 C 397.55 415.72 376.62 403.01 354.20 393.74 C 372.30 353.42 382.61 309.48 383.44 265.30 Z" />
<path fill="#ffffff" d=" M 182.87 405.38 C 203.64 398.73 225.18 393.96 246.98 393.02 C 246.98 425.39 246.99 457.77 246.98 490.15 C 221.65 466.53 200.50 438.54 184.05 408.09 C 183.61 407.20 183.22 406.30 182.87 405.38 Z" />
<path fill="#ffffff" d=" M 265.04 393.01 C 286.98 392.80 308.69 397.48 329.68 403.58 C 313.25 435.38 291.00 464.03 265.15 488.74 C 264.86 456.83 265.07 424.92 265.04 393.01 Z" />
<path fill="#ffffff" d=" M 346.17 409.47 C 363.11 416.88 379.54 425.60 394.44 436.60 C 397.40 438.37 399.67 441.19 402.92 442.44 C 369.71 468.26 329.76 485.85 287.93 491.02 C 309.62 468.73 328.27 443.45 343.10 416.09 C 344.20 413.93 345.80 411.92 346.17 409.47 Z" />
<path fill="#ffffff" d=" M 112.96 444.94 C 129.05 431.59 147.15 420.56 166.34 412.24 C 176.47 432.33 188.98 451.19 202.99 468.77 C 209.02 476.50 215.79 483.60 222.16 491.03 C 185.05 485.45 149.21 471.33 118.66 449.47 C 116.79 447.94 114.42 446.88 112.96 444.94 Z" />
</svg>
