<?xml version="1.0" encoding="UTF-8" ?>
<!DOCTYPE svg PUBLIC "-//W3C//DTD SVG 1.1//EN" "http://www.w3.org/Graphics/SVG/1.1/DTD/svg11.dtd">
<svg width="256pt" height="256pt" viewBox="0 0 256 256" version="1.1" xmlns="http://www.w3.org/2000/svg">
<path fill="#ffffff" d=" M 0.00 0.00 L 256.00 0.00 L 256.00 256.00 L 0.00 256.00 L 0.00 0.00 Z" />
<path fill="#b0b0b0" d=" M 101.31 1.38 C 106.15 0.10 111.09 1.23 116.01 0.78 C 123.66 1.54 131.34 0.30 138.99 1.07 C 142.35 1.11 145.64 -0.04 149.02 0.42 C 172.29 3.37 196.07 7.41 216.76 19.10 C 225.04 23.85 233.17 29.73 237.89 38.25 C 241.94 45.63 241.90 55.20 237.61 62.48 C 234.13 68.51 228.93 73.35 223.27 77.32 C 212.96 84.38 201.21 89.05 189.24 92.44 C 174.16 96.54 158.65 99.14 143.03 99.98 C 125.35 100.13 107.50 100.67 90.05 97.29 C 70.86 93.96 51.45 88.82 34.98 78.07 C 26.55 72.55 18.63 64.84 16.30 54.69 C 14.49 46.35 18.22 37.94 23.70 31.78 C 30.55 24.16 39.63 18.95 48.87 14.74 C 65.43 7.28 83.41 3.79 101.31 1.38 Z" />
<path fill="#b0b0b0" d=" M 16.17 68.64 C 17.96 72.19 19.64 75.83 21.84 79.16 C 27.07 86.33 34.58 91.44 42.26 95.68 C 54.56 102.09 67.96 106.07 81.46 109.05 C 92.87 111.03 104.36 113.27 116.00 112.99 C 127.95 112.94 139.93 113.36 151.87 112.58 C 171.75 110.44 191.74 106.46 209.93 97.91 C 220.56 92.76 231.38 86.15 237.37 75.59 C 238.67 73.41 239.51 71.00 240.78 68.80 C 241.17 79.88 240.86 90.97 240.99 102.05 C 241.28 110.18 236.51 117.43 230.92 122.91 C 223.28 130.19 213.92 135.48 204.11 139.25 C 185.26 146.71 165.12 150.42 144.95 151.72 C 121.47 153.05 97.74 151.66 74.82 146.21 C 58.03 141.82 40.85 136.10 27.64 124.38 C 21.05 118.47 15.39 110.27 15.92 101.04 C 16.16 90.24 15.69 79.43 16.17 68.64 Z" />
<path fill="#b0b0b0" d=" M 16.10 120.63 C 18.59 125.43 20.75 130.55 24.62 134.45 C 32.88 143.06 43.57 148.96 54.66 153.12 C 77.99 162.08 103.13 165.25 128.00 165.59 C 151.88 165.33 175.98 162.44 198.61 154.51 C 211.01 150.12 223.18 144.05 232.40 134.47 C 236.16 130.58 238.34 125.57 240.77 120.83 C 241.18 131.90 240.81 142.98 241.00 154.05 C 241.37 162.21 236.48 169.41 230.94 174.93 C 223.10 182.38 213.45 187.67 203.41 191.52 C 183.49 199.15 162.23 202.87 140.98 204.00 C 126.55 204.09 112.05 204.43 97.70 202.44 C 78.74 199.72 59.69 195.40 42.58 186.49 C 32.75 181.14 22.92 174.23 18.00 163.82 C 15.46 158.94 15.96 153.30 15.96 147.99 C 16.10 138.87 15.79 129.75 16.10 120.63 Z" />
<path fill="#b0b0b0" d=" M 16.20 172.59 C 18.72 177.63 21.00 182.96 25.05 187.00 C 34.20 196.33 46.28 202.05 58.41 206.47 C 74.39 211.95 91.09 215.27 107.91 216.79 C 118.93 217.19 129.97 216.90 141.00 217.00 C 149.64 217.13 158.22 215.93 166.71 214.45 C 182.23 211.75 197.73 207.88 211.92 200.87 C 219.65 197.10 227.07 192.38 232.89 185.98 C 236.37 182.14 238.42 177.33 240.76 172.78 C 241.23 183.87 240.85 194.96 240.97 206.05 C 241.18 217.22 232.79 226.18 224.29 232.32 C 203.68 246.83 178.26 251.95 153.70 255.03 C 138.49 255.05 123.24 254.82 108.02 255.14 C 102.61 255.59 97.32 253.94 91.96 253.45 C 70.75 250.11 49.11 244.35 31.55 231.48 C 23.18 225.29 15.44 216.06 15.92 205.06 C 16.17 194.24 15.66 183.40 16.20 172.59 Z" />
</svg>
