<?xml version="1.0" encoding="UTF-8" ?>
<!DOCTYPE svg PUBLIC "-//W3C//DTD SVG 1.1//EN" "http://www.w3.org/Graphics/SVG/1.1/DTD/svg11.dtd">
<svg width="300pt" height="217pt" viewBox="0 0 300 217" version="1.1" xmlns="http://www.w3.org/2000/svg">
<path fill="#ffffff" d=" M 0.00 0.00 L 300.00 0.00 L 300.00 217.00 L 0.00 217.00 L 0.00 0.00 Z" />
<path fill="#4e6297" d=" M 140.87 12.20 C 143.04 10.09 145.71 8.28 148.86 8.32 C 154.24 8.17 159.99 7.60 165.04 9.84 C 168.34 12.41 171.13 16.50 170.65 20.86 C 170.62 30.72 171.25 41.12 176.19 49.90 C 178.36 50.01 180.55 49.94 182.69 50.33 C 185.10 51.89 186.38 54.80 188.93 56.11 C 192.22 55.82 195.78 55.42 198.53 53.42 C 201.28 51.58 198.62 48.39 198.25 45.96 C 196.67 41.91 199.47 37.90 202.40 35.32 C 206.60 31.64 212.17 28.16 217.99 29.57 C 225.16 31.07 232.19 33.67 238.39 37.60 C 241.79 40.29 245.10 43.11 248.94 45.19 C 263.51 53.72 275.86 65.40 287.72 77.27 C 291.60 81.07 294.95 85.70 296.24 91.04 C 296.54 92.58 295.14 93.71 294.57 95.00 C 294.98 97.47 297.30 100.27 295.49 102.59 C 294.05 103.22 292.45 102.62 290.96 102.54 C 291.65 104.95 292.57 107.43 292.18 109.98 C 291.79 111.26 289.99 112.37 288.82 111.32 C 284.68 108.62 281.53 104.69 277.55 101.77 C 276.48 103.08 275.53 105.89 273.33 104.69 C 268.58 102.75 265.48 98.27 260.91 96.02 C 259.13 96.50 257.46 98.68 255.56 97.49 C 251.10 95.03 248.75 90.18 246.70 85.74 C 245.18 85.73 243.67 85.70 242.16 85.66 C 240.39 86.80 238.50 87.74 236.75 88.91 C 235.82 90.31 235.27 91.92 234.36 93.34 C 232.75 94.36 230.72 94.32 228.92 94.74 C 227.59 95.80 226.36 97.02 224.80 97.73 C 223.00 98.46 221.36 97.05 219.69 96.61 C 218.39 96.98 217.20 97.67 215.92 98.09 C 214.44 98.15 213.34 96.90 212.08 96.30 C 209.54 97.52 206.94 97.61 204.86 95.48 C 202.86 96.90 200.51 97.03 198.64 95.34 C 196.69 93.42 194.25 95.25 192.00 95.34 C 189.12 94.78 186.82 92.85 184.48 91.23 C 184.80 94.36 184.88 97.51 184.95 100.66 C 187.78 102.58 190.46 104.82 192.25 107.79 C 195.60 113.24 199.04 118.80 200.58 125.09 C 201.54 129.14 204.19 132.78 203.64 137.11 C 207.72 140.37 212.03 143.31 216.39 146.17 C 217.88 144.54 219.34 142.19 221.83 142.19 C 224.10 142.28 225.30 144.37 226.57 145.94 C 229.71 140.73 232.86 135.51 236.02 130.30 C 232.55 130.88 229.08 131.42 225.59 131.87 C 233.82 124.27 242.23 116.88 250.77 109.63 C 248.31 120.51 245.75 131.36 243.08 142.19 C 241.67 138.85 240.48 135.43 239.37 131.98 C 236.09 137.35 233.15 142.91 229.75 148.20 C 232.65 147.85 236.32 147.99 237.72 151.06 C 239.44 153.57 236.55 155.65 235.18 157.47 C 234.78 159.15 234.93 161.23 233.42 162.40 C 231.26 164.09 228.13 163.48 225.99 165.25 C 225.50 164.88 225.02 164.51 224.54 164.14 C 228.46 162.93 225.45 159.46 223.07 158.72 C 223.48 160.33 223.93 161.91 224.39 163.50 C 221.64 163.90 220.80 161.24 219.58 159.42 C 218.07 162.56 220.18 165.56 223.62 165.50 C 223.35 166.01 222.80 167.02 222.53 167.53 C 221.27 166.98 220.01 166.43 218.75 165.88 C 217.87 167.29 216.99 168.70 216.11 170.11 C 217.08 173.55 220.26 177.43 218.01 180.94 C 212.18 191.07 206.44 201.25 200.74 211.44 C 199.66 207.46 199.05 203.33 197.42 199.52 C 197.07 199.27 196.36 198.77 196.00 198.52 C 192.18 198.59 188.44 199.46 184.66 199.92 C 190.16 191.02 195.96 182.31 201.59 173.50 C 203.83 169.52 209.02 169.96 212.82 168.57 C 214.16 166.46 215.48 164.34 216.81 162.23 C 215.31 158.58 214.47 154.36 211.35 151.66 C 208.02 148.72 204.10 146.55 200.16 144.55 C 196.74 144.93 193.39 143.98 190.06 143.37 C 185.86 142.50 183.04 138.95 179.46 136.87 C 180.19 136.36 180.93 135.86 181.67 135.38 C 181.00 134.61 180.33 133.84 179.67 133.07 C 179.16 133.93 178.65 134.79 178.12 135.64 C 176.70 132.65 174.90 129.84 172.59 127.46 C 171.72 128.68 170.86 129.90 169.99 131.11 C 175.38 142.89 181.90 154.13 186.92 166.07 C 187.77 168.71 189.26 172.00 187.31 174.48 C 185.75 176.42 183.92 178.25 183.66 180.87 C 183.35 183.63 180.74 184.96 179.08 186.85 C 177.79 188.84 177.16 191.44 174.92 192.62 C 172.31 194.04 170.63 196.53 168.37 198.36 C 166.22 199.35 163.80 199.40 161.52 199.85 C 159.49 204.58 153.77 206.56 149.03 205.02 C 146.20 204.39 144.32 202.05 142.56 199.94 C 140.24 199.49 137.82 199.27 135.66 198.25 C 133.86 197.33 133.47 195.15 132.62 193.50 C 129.21 192.28 126.38 189.92 125.58 186.25 C 123.27 185.19 120.36 184.38 119.68 181.56 C 118.97 178.38 115.96 176.75 114.53 174.04 C 114.49 171.93 115.35 169.96 116.15 168.06 C 121.80 155.70 127.96 143.57 134.56 131.69 C 133.60 130.35 132.62 129.03 131.64 127.71 C 129.45 130.52 127.85 133.77 125.28 136.27 C 123.50 138.00 121.58 139.57 119.90 141.39 C 119.30 140.69 118.73 139.97 118.17 139.26 C 117.78 139.66 117.02 140.46 116.63 140.86 L 118.62 140.25 C 118.36 140.86 117.85 142.08 117.60 142.70 C 113.41 143.78 109.08 144.45 104.76 143.89 C 99.78 147.12 94.95 150.60 90.34 154.34 C 87.71 156.61 84.84 159.25 84.25 162.84 C 85.81 165.82 88.66 167.78 91.06 170.03 C 94.23 172.70 96.72 176.08 99.99 178.64 C 99.45 176.55 99.52 173.94 97.54 172.57 C 93.73 170.22 93.80 163.89 97.35 161.37 C 100.34 160.23 102.78 163.57 103.30 166.16 C 103.31 169.77 101.61 173.25 102.22 176.90 C 103.05 182.05 104.98 187.00 107.48 191.56 C 108.89 194.23 111.76 196.07 112.39 199.14 C 113.05 202.72 113.83 206.85 111.36 209.93 C 107.51 202.82 105.61 194.22 99.11 188.87 C 94.06 184.53 86.96 186.15 80.89 185.40 C 74.06 185.29 67.76 182.35 62.08 178.81 C 63.43 177.51 64.82 176.25 66.22 175.01 C 63.61 173.89 60.98 172.82 58.37 171.71 C 61.49 168.86 65.42 167.19 69.48 166.18 C 68.03 164.09 67.40 161.67 67.87 159.15 C 66.43 157.88 64.47 156.86 63.98 154.86 C 64.31 152.32 66.76 151.00 68.41 149.33 C 65.08 149.45 61.98 150.55 58.97 151.88 C 55.69 153.16 53.08 150.26 51.27 147.96 C 52.65 146.45 53.91 144.42 56.11 144.08 C 58.84 143.66 61.02 145.61 63.08 147.06 C 64.86 147.03 66.64 146.98 68.42 146.90 C 62.58 142.82 54.00 142.49 50.16 135.88 C 46.21 129.65 43.02 122.38 44.30 114.83 C 48.42 116.35 51.62 119.45 54.94 122.21 C 54.69 117.65 54.67 112.93 56.75 108.73 C 59.44 111.26 62.22 113.81 64.09 117.03 C 68.77 125.55 63.36 136.54 69.81 144.44 C 70.04 139.38 69.35 134.25 70.33 129.25 C 71.80 122.92 75.80 116.91 81.77 114.05 C 81.62 118.34 81.89 122.64 81.63 126.93 C 80.81 134.00 75.96 139.60 73.67 146.15 C 72.76 147.94 74.29 149.57 74.90 151.16 C 77.02 148.49 77.49 143.43 81.69 143.29 C 83.04 143.85 84.23 144.71 85.47 145.49 C 85.04 146.18 84.60 146.87 84.16 147.56 C 83.65 146.77 82.62 145.18 82.10 144.38 C 78.65 144.87 76.40 149.06 79.01 151.82 C 78.53 153.17 78.07 154.53 77.66 155.91 C 78.18 155.65 79.23 155.12 79.75 154.86 C 80.30 152.02 78.87 147.84 82.05 146.30 C 82.91 147.91 83.44 149.66 84.00 151.39 C 84.12 150.57 84.36 148.93 84.48 148.11 C 85.02 148.01 86.10 147.82 86.64 147.73 C 91.08 144.44 95.59 141.23 99.84 137.70 C 101.81 130.15 102.88 122.02 107.30 115.41 C 110.83 110.58 113.52 105.12 117.83 100.89 C 120.18 98.89 119.61 95.56 120.21 92.85 C 118.30 94.00 116.49 95.59 114.21 95.93 C 112.83 95.29 111.56 94.45 110.26 93.67 C 107.83 95.65 104.84 97.86 101.71 95.86 C 99.26 97.64 96.46 98.68 93.61 97.12 C 91.06 97.99 88.44 99.41 86.03 97.34 C 84.40 97.80 82.81 98.77 81.07 98.58 C 79.52 97.83 78.74 96.18 77.66 94.93 C 76.20 94.84 74.70 94.99 73.28 94.56 C 71.94 93.06 71.62 90.96 70.92 89.13 C 68.33 89.23 65.99 88.43 64.48 86.24 C 63.49 86.44 62.49 86.63 61.50 86.84 C 59.13 91.82 54.50 95.29 49.64 97.65 C 48.29 98.34 47.01 96.76 45.73 96.50 C 41.39 99.24 37.98 103.56 33.02 105.23 C 30.30 106.23 30.45 102.82 29.66 101.23 C 25.99 104.38 22.50 107.74 18.75 110.80 C 17.31 111.99 14.15 112.94 13.28 110.69 C 13.27 107.40 15.33 104.56 16.52 101.60 C 14.65 102.50 12.78 103.41 10.90 104.28 C 8.28 101.02 11.16 97.20 12.05 93.83 C 11.03 93.25 10.04 92.64 9.09 91.98 C 9.63 87.47 12.54 83.78 15.30 80.37 C 21.34 73.08 27.99 66.24 35.38 60.29 C 44.88 53.06 54.37 45.79 64.46 39.39 C 70.86 34.77 78.21 31.46 85.97 29.98 C 87.67 29.75 89.55 29.09 91.09 30.33 C 83.56 31.37 76.55 34.31 69.54 37.11 C 70.07 37.50 70.60 37.89 71.14 38.27 C 75.30 36.11 79.80 34.50 84.49 34.03 C 79.91 37.69 73.50 37.39 68.69 40.68 C 68.87 39.98 69.23 38.60 69.41 37.91 C 68.19 39.12 67.11 40.45 66.16 41.89 C 72.61 42.20 78.59 39.57 84.63 37.75 C 83.85 38.85 83.06 39.95 82.27 41.05 C 86.53 40.91 90.64 39.65 94.87 39.33 C 95.30 39.59 96.14 40.12 96.56 40.38 C 93.06 42.02 88.12 40.66 85.47 43.81 C 89.41 43.92 93.26 42.98 97.18 42.74 C 95.02 44.50 92.27 45.04 89.76 46.07 C 90.10 46.71 90.78 48.00 91.12 48.65 C 94.17 48.72 97.14 47.79 100.17 47.53 C 98.28 49.31 95.74 49.93 93.24 50.28 C 93.12 51.34 92.99 52.39 92.85 53.45 C 91.24 54.10 89.66 54.83 88.07 55.55 C 88.50 55.73 89.34 56.09 89.77 56.28 C 91.14 55.38 92.50 54.47 93.89 53.61 C 93.85 53.03 93.76 51.86 93.72 51.28 C 95.96 50.93 98.20 50.51 100.45 50.19 C 98.78 51.81 95.67 52.28 95.03 54.78 C 96.93 56.31 99.28 55.11 101.41 54.93 C 101.33 55.39 101.17 56.32 101.09 56.78 C 101.72 56.96 102.98 57.33 103.60 57.51 C 101.83 58.82 98.37 59.48 99.68 62.42 C 101.92 62.29 104.02 61.43 106.15 60.81 C 105.06 62.14 103.96 63.44 102.89 64.78 C 105.03 64.11 107.14 63.34 109.26 62.57 C 108.55 63.75 107.83 64.92 107.13 66.09 C 108.67 65.18 110.21 64.26 111.77 63.36 C 111.50 64.11 110.97 65.62 110.71 66.37 C 111.92 65.85 113.14 65.34 114.36 64.83 C 114.28 65.27 114.12 66.14 114.04 66.57 C 115.60 66.67 117.16 66.79 118.72 66.94 C 117.19 64.15 115.35 61.55 113.39 59.04 C 113.81 58.56 114.64 57.60 115.06 57.12 C 110.91 57.29 106.09 57.19 103.65 53.21 C 100.65 50.88 104.12 48.13 105.46 45.94 C 105.66 40.09 102.67 33.28 96.65 31.58 C 95.72 30.87 93.13 31.74 93.17 30.17 C 100.58 28.41 106.06 36.43 107.04 42.93 C 107.83 46.31 104.18 48.69 104.17 51.74 C 106.84 55.97 112.20 55.68 116.58 55.82 C 118.29 53.88 120.01 51.94 121.82 50.08 C 124.40 50.02 127.08 50.40 129.60 49.72 C 132.67 46.39 134.90 42.35 138.24 39.25 C 141.42 35.99 146.12 34.22 148.20 29.94 C 148.84 27.19 146.25 24.96 143.86 24.24 C 139.92 23.10 136.32 20.83 132.14 20.54 C 130.70 22.09 129.36 23.81 127.47 24.84 C 126.59 21.42 127.05 17.32 129.91 14.95 C 133.08 12.67 137.06 12.10 140.87 12.20 Z" />
<path fill="#ffffff" d=" M 142.15 14.26 C 143.03 12.52 143.67 10.14 146.00 9.92 C 151.51 8.80 157.30 8.93 162.79 10.13 C 166.53 11.14 168.19 15.00 169.79 18.14 C 169.50 18.56 168.90 19.41 168.61 19.83 C 170.30 25.92 170.86 33.40 166.68 38.66 C 164.05 42.07 161.77 45.75 159.07 49.11 C 158.88 46.33 158.88 43.55 158.88 40.76 C 156.71 43.08 154.42 45.28 151.79 47.08 C 151.63 45.15 151.50 43.21 151.36 41.28 C 148.44 43.38 145.39 45.29 142.30 47.11 C 142.99 44.66 143.81 42.26 144.64 39.86 C 141.47 41.82 138.22 43.66 134.76 45.07 C 137.34 41.49 140.60 38.48 144.20 35.95 C 144.59 36.28 145.37 36.96 145.77 37.30 C 147.18 36.30 148.61 35.31 150.05 34.33 C 150.49 35.80 150.93 37.26 151.39 38.72 C 153.13 37.45 154.88 36.18 156.65 34.95 C 157.17 36.08 157.69 37.20 158.21 38.33 C 162.53 35.35 167.13 31.09 165.82 25.23 C 164.63 27.19 164.28 29.49 163.52 31.62 C 162.37 33.62 160.35 34.91 158.61 36.34 C 158.81 33.97 159.23 31.62 159.67 29.28 C 157.52 32.39 154.81 35.09 151.41 36.84 C 152.12 33.54 154.73 31.18 155.70 28.00 C 153.05 30.84 150.39 33.82 146.63 35.21 C 147.70 32.88 149.28 30.72 149.75 28.16 C 148.94 26.18 147.24 24.75 145.93 23.12 C 147.71 23.35 149.50 23.54 151.30 23.67 C 147.77 21.44 143.39 22.22 139.47 21.33 C 143.10 20.94 146.80 20.72 150.43 21.22 C 150.81 21.63 151.58 22.44 151.97 22.85 C 152.58 22.77 153.81 22.62 154.43 22.54 C 152.36 19.81 148.79 19.46 145.87 18.14 C 144.31 17.20 143.35 15.58 142.15 14.26 Z" />
<path fill="#4e6297" d=" M 148.92 12.87 C 152.51 12.54 156.15 12.91 159.49 14.33 C 158.31 14.35 157.13 14.33 155.96 14.30 C 155.59 15.23 155.23 16.16 154.87 17.09 C 155.58 17.69 156.30 18.29 157.02 18.90 C 155.13 18.52 153.17 18.29 151.41 17.47 C 150.27 16.13 149.70 14.43 148.92 12.87 Z" />
<path fill="#ffffff" d=" M 130.42 16.34 C 132.86 13.99 136.61 13.31 139.86 13.84 C 141.40 16.07 142.97 18.28 144.97 20.12 C 142.61 20.03 140.34 19.41 138.33 18.14 C 139.02 17.52 139.72 16.90 140.44 16.29 C 139.79 15.76 138.51 14.68 137.87 14.14 C 138.01 14.86 138.30 16.30 138.45 17.02 C 137.50 16.33 135.62 14.95 134.68 14.26 C 135.58 16.85 137.65 18.65 139.83 20.18 C 137.15 19.91 134.48 19.59 131.86 19.03 C 130.52 20.27 129.20 21.52 127.86 22.76 C 128.60 20.62 128.66 17.99 130.42 16.34 Z" />
<path fill="#ffffff" d=" M 209.29 32.33 C 213.20 30.06 217.86 31.00 221.98 32.10 C 226.78 33.26 231.19 35.53 235.73 37.40 C 234.91 37.91 234.10 38.44 233.31 38.97 C 234.20 39.14 235.98 39.47 236.86 39.64 C 237.32 39.52 238.25 39.26 238.71 39.14 C 239.04 39.66 239.71 40.72 240.05 41.24 C 233.95 41.07 228.13 39.09 222.40 37.22 C 222.32 37.51 222.18 38.09 222.11 38.38 C 223.15 39.08 224.20 39.79 225.23 40.52 C 223.22 40.72 221.09 40.40 219.18 41.17 C 219.35 42.18 220.10 42.80 221.43 43.03 C 218.50 42.98 215.57 42.98 212.65 43.13 C 214.25 43.93 215.96 44.56 217.51 45.47 C 218.46 47.02 216.25 47.81 215.09 48.07 C 212.32 48.36 209.54 48.09 206.78 48.25 C 209.25 49.27 211.85 49.90 214.37 50.79 C 211.43 50.92 208.49 50.56 205.55 50.74 C 207.86 52.04 211.23 51.77 212.60 54.40 C 211.06 54.61 209.51 54.80 207.97 54.99 C 208.49 56.08 209.01 57.17 209.52 58.27 C 207.16 57.82 204.82 57.27 202.45 56.90 C 204.26 58.82 208.40 59.48 207.37 62.86 C 205.50 61.88 203.65 60.84 201.75 59.91 C 202.82 61.56 203.95 63.16 205.03 64.80 C 202.39 64.61 200.20 63.08 198.01 61.76 C 198.15 62.43 198.42 63.79 198.55 64.47 C 197.72 63.98 196.05 63.00 195.21 62.51 C 195.95 63.97 196.72 65.41 197.50 66.84 C 196.16 65.99 194.82 65.15 193.47 64.31 C 193.59 64.96 193.84 66.25 193.96 66.89 C 192.75 66.03 191.52 65.18 190.28 64.36 C 190.77 65.73 191.26 67.10 191.76 68.47 C 190.28 67.04 188.89 65.53 187.47 64.04 C 187.46 64.82 187.45 66.38 187.44 67.16 C 187.03 66.68 186.63 66.20 186.23 65.71 C 187.74 63.61 189.30 61.54 190.95 59.54 C 190.68 58.83 190.42 58.12 190.16 57.41 C 194.01 56.91 198.37 56.19 200.94 52.96 C 202.54 49.01 198.06 45.10 199.90 41.11 C 201.56 37.01 205.57 34.41 209.29 32.33 Z" />
<path fill="#4e6297" d=" M 226.82 36.05 C 226.24 35.32 226.52 35.03 227.65 35.17 C 228.83 35.53 231.08 35.68 231.26 37.19 C 229.74 37.71 228.11 36.75 226.82 36.05 Z" />
<path fill="#ffffff" d=" M 167.04 41.97 C 167.16 39.56 168.91 37.71 170.13 35.78 C 171.46 40.06 171.39 44.60 170.92 49.01 C 168.98 47.14 167.04 44.82 167.04 41.97 Z" />
<path fill="#4e6297" d=" M 232.81 37.36 C 232.99 37.67 232.99 37.67 232.81 37.36 Z" />
<path fill="#4e6297" d=" M 209.16 39.06 C 211.64 39.81 215.56 38.66 217.17 40.94 L 217.16 41.65 C 214.40 41.42 210.84 41.80 209.16 39.06 Z" />
<path fill="#ffffff" d=" M 69.98 45.03 C 73.64 42.21 79.05 40.19 83.44 42.54 C 79.11 44.00 74.63 45.68 69.98 45.03 Z" />
<path fill="#ffffff" d=" M 223.95 42.55 C 224.97 41.97 226.01 41.42 227.03 40.85 C 230.08 41.57 233.65 41.49 235.96 43.94 C 231.89 44.36 227.89 43.46 223.95 42.55 Z" />
<path fill="#ffffff" d=" M 56.02 46.84 C 58.96 44.91 61.67 42.28 65.30 41.77 C 60.03 46.74 53.08 49.72 48.41 55.37 C 55.23 52.50 60.11 46.30 66.99 43.43 C 68.51 43.63 69.28 44.52 69.31 46.11 C 67.86 48.38 65.42 49.71 63.32 51.30 C 56.90 55.66 49.74 60.16 41.61 59.46 C 44.84 53.71 50.84 50.55 56.02 46.84 Z" />
<path fill="#ffffff" d=" M 165.20 42.73 C 166.36 45.34 167.76 47.83 169.47 50.13 C 166.60 50.09 163.74 50.08 160.87 50.08 C 162.22 47.57 163.63 45.11 165.20 42.73 Z" />
<path fill="#ffffff" d=" M 238.56 42.80 C 240.21 42.82 241.99 42.60 243.44 43.60 C 249.88 47.30 256.13 51.35 262.04 55.84 C 263.74 57.06 265.00 58.76 265.92 60.63 C 261.75 60.77 257.42 60.32 253.70 58.29 C 246.99 54.76 240.47 50.87 234.37 46.36 C 235.46 45.60 236.54 44.84 237.62 44.08 C 243.80 47.85 249.94 51.75 256.37 55.10 C 255.66 54.01 254.93 52.89 253.78 52.23 C 248.78 48.97 243.36 46.36 238.56 42.80 Z" />
<path fill="#ffffff" d=" M 76.12 47.11 C 78.81 45.57 81.77 44.50 84.86 44.12 C 83.38 47.16 78.97 46.77 76.12 47.11 Z" />
<path fill="#ffffff" d=" M 131.32 49.91 C 134.19 46.84 138.12 45.24 141.74 43.28 C 141.12 45.47 141.07 47.69 142.53 49.55 C 144.82 47.48 147.26 45.59 149.88 43.96 C 150.20 45.58 150.53 47.20 150.89 48.81 C 153.56 47.86 155.78 46.12 157.69 44.07 C 157.87 46.08 158.11 48.08 158.39 50.08 C 149.36 50.00 140.34 50.30 131.32 49.91 Z" />
<path fill="#ffffff" d=" M 220.70 44.09 C 224.58 44.13 228.78 44.47 232.03 46.82 C 228.08 46.83 224.25 45.72 220.70 44.09 Z" />
<path fill="#ffffff" d=" M 81.51 48.49 C 83.69 47.10 86.01 45.91 88.46 45.09 C 86.84 47.33 84.05 47.93 81.51 48.49 Z" />
<path fill="#ffffff" d=" M 218.45 45.39 C 221.01 46.04 223.51 46.91 225.92 48.00 C 223.14 48.76 219.95 48.00 218.45 45.39 Z" />
<path fill="#ffffff" d=" M 69.11 49.13 C 70.81 47.48 73.10 46.93 75.40 46.96 C 70.43 54.66 61.67 60.61 52.24 60.14 C 57.86 56.47 63.96 53.50 69.11 49.13 Z" />
<path fill="#ffffff" d=" M 171.93 47.56 C 173.18 46.72 175.09 48.77 174.23 49.98 C 172.86 51.05 170.79 48.88 171.93 47.56 Z" />
<path fill="#ffffff" d=" M 232.27 47.21 C 235.67 48.80 238.45 51.39 241.68 53.26 C 245.55 55.77 249.91 57.54 253.46 60.55 C 250.79 60.74 247.98 60.75 245.66 59.24 C 240.74 56.31 236.18 52.73 232.13 48.69 C 232.17 48.32 232.24 47.58 232.27 47.21 Z" />
<path fill="#ffffff" d=" M 83.23 51.08 C 84.56 49.16 87.85 46.50 89.39 49.60 C 87.38 50.24 85.32 50.74 83.23 51.08 Z" />
<path fill="#ffffff" d=" M 217.54 48.61 C 219.85 48.83 222.34 49.08 223.72 51.24 C 221.41 51.04 219.34 50.02 217.54 48.61 Z" />
<path fill="#ffffff" d=" M 225.41 50.14 C 226.56 49.45 227.71 48.76 228.85 48.06 C 233.67 52.92 239.44 56.66 244.45 61.28 C 242.59 61.21 240.65 61.12 239.03 60.11 C 234.09 57.38 229.70 53.77 225.41 50.14 Z" />
<path fill="#ffffff" d=" M 75.94 49.87 C 77.35 48.06 79.58 49.40 81.31 49.84 C 77.28 53.98 72.92 58.03 67.64 60.51 C 66.30 61.29 64.84 60.59 63.50 60.29 C 67.78 56.97 72.22 53.85 75.94 49.87 Z" />
<path fill="#ffffff" d=" M 85.18 54.46 C 86.14 51.45 89.57 51.17 92.12 50.30 C 91.03 53.18 87.90 53.96 85.18 54.46 Z" />
<path fill="#ffffff" d=" M 214.79 49.61 C 217.47 50.42 220.18 51.68 221.62 54.24 C 218.85 53.74 214.90 53.26 214.79 49.61 Z" />
<path fill="#ffffff" d=" M 69.63 62.26 C 73.76 58.36 78.56 55.25 82.61 51.25 C 83.13 52.21 84.93 53.50 83.59 54.58 C 79.86 58.41 74.89 61.20 69.63 62.26 Z" />
<path fill="#ffffff" d=" M 115.65 59.12 C 117.79 56.73 119.95 54.36 122.02 51.91 C 141.02 51.84 160.01 51.92 179.00 51.85 C 183.71 51.16 186.02 56.16 188.76 59.07 C 185.98 63.44 182.98 67.78 181.84 72.93 C 162.09 72.92 142.33 72.99 122.58 72.90 C 121.59 67.73 118.73 63.27 115.65 59.12 Z" />
<path fill="#ffffff" d=" M 222.54 54.91 C 222.93 53.79 223.36 52.70 223.84 51.61 C 227.24 54.06 230.66 56.50 233.97 59.07 C 235.49 59.95 235.54 61.68 235.18 63.22 C 230.47 61.34 226.02 58.62 222.54 54.91 Z" />
<path fill="#ffffff" d=" M 214.61 55.71 C 214.39 55.13 213.94 53.95 213.71 53.37 C 215.44 54.02 217.19 54.66 218.95 55.23 C 217.25 55.63 215.77 56.49 214.95 58.08 C 213.86 57.43 212.77 56.80 211.71 56.11 C 212.43 56.01 213.89 55.81 214.61 55.71 Z" />
<path fill="#ffffff" d=" M 77.90 64.17 C 80.84 61.66 83.20 58.56 85.91 55.81 C 86.76 56.50 87.62 57.20 88.47 57.89 C 87.16 59.26 85.85 60.63 84.52 61.98 C 84.98 62.43 85.43 62.88 85.89 63.33 C 86.52 62.62 87.78 61.20 88.41 60.50 C 87.05 63.81 84.37 66.32 82.84 69.55 C 87.41 66.95 88.51 60.47 93.84 59.06 C 91.82 64.93 87.44 70.97 80.96 72.11 C 80.59 70.81 80.22 69.51 80.00 68.18 C 81.26 66.84 82.88 65.93 84.42 64.95 C 83.96 64.51 83.49 64.06 83.03 63.62 C 81.11 65.06 79.03 66.73 76.49 66.69 C 75.39 65.77 74.63 64.46 74.82 62.98 C 76.48 61.65 78.38 60.63 80.17 59.48 C 79.37 61.03 78.62 62.59 77.90 64.17 Z" />
<path fill="#ffffff" d=" M 92.42 55.92 C 96.29 54.83 92.23 60.46 91.29 57.24 C 91.57 56.91 92.14 56.25 92.42 55.92 Z" />
<path fill="#ffffff" d=" M 95.16 57.51 C 96.81 57.01 97.36 57.56 96.80 59.15 C 95.13 59.65 94.58 59.10 95.16 57.51 Z" />
<path fill="#ffffff" d=" M 218.21 58.02 C 218.94 57.55 220.40 56.60 221.13 56.12 C 223.12 59.10 225.25 62.03 228.04 64.32 C 227.52 63.17 226.47 60.86 225.95 59.71 C 227.97 61.29 229.98 62.90 231.85 64.66 C 231.01 65.72 230.16 66.76 229.31 67.80 C 225.09 65.18 221.35 61.87 218.21 58.02 Z" />
<path fill="#ffffff" d=" M 20.94 76.02 C 27.31 69.89 33.05 62.75 40.87 58.42 C 38.58 62.19 34.84 64.67 31.85 67.83 C 27.65 72.13 23.22 76.32 19.96 81.42 C 27.59 75.70 32.88 67.18 41.04 62.04 C 43.94 60.90 47.16 60.99 50.19 60.39 C 45.90 66.02 41.49 71.58 36.93 77.00 C 35.70 78.71 33.56 79.10 31.70 79.79 C 23.86 82.34 18.98 90.53 10.65 91.92 C 11.80 85.46 16.90 80.83 20.94 76.02 Z" />
<path fill="#ffffff" d=" M 211.18 58.16 C 217.09 59.02 219.42 65.00 223.62 68.42 L 223.09 65.28 C 224.36 67.09 228.48 68.11 227.03 70.94 C 219.24 71.66 215.29 63.35 211.18 58.16 Z" />
<path fill="#ffffff" d=" M 55.79 63.80 C 57.35 61.60 60.03 60.79 62.46 59.98 C 59.98 64.21 56.79 67.95 54.15 72.08 C 49.25 79.11 45.54 86.85 41.57 94.41 C 35.79 95.49 30.66 98.50 26.26 102.31 C 22.40 105.21 19.42 109.43 14.71 111.06 C 15.71 103.17 20.94 96.35 27.89 92.66 C 26.15 95.17 24.23 97.58 23.02 100.41 C 25.94 98.37 27.90 95.35 29.75 92.38 C 31.73 92.15 33.72 91.93 35.72 91.72 C 43.07 82.90 48.71 72.82 55.79 63.80 Z" />
<path fill="#ffffff" d=" M 88.41 60.50 C 89.00 60.04 89.00 60.04 88.41 60.50 Z" />
<path fill="#ffffff" d=" M 210.20 60.28 C 211.77 60.37 213.23 62.66 212.99 64.18 C 211.38 64.13 209.90 61.81 210.20 60.28 Z" />
<path fill="#ffffff" d=" M 87.86 70.92 C 91.31 67.63 93.37 63.21 96.87 60.00 C 94.95 64.92 91.12 68.75 88.94 73.53 C 93.12 70.87 94.96 65.93 97.63 61.96 C 98.34 62.72 99.06 63.48 99.78 64.24 C 97.06 69.25 94.04 75.29 87.84 76.42 C 87.44 74.64 85.96 72.34 87.86 70.92 Z" />
<path fill="#ffffff" d=" M 236.88 60.51 C 241.79 63.36 243.68 69.00 246.33 73.69 C 250.38 81.19 252.67 89.69 258.06 96.42 C 253.27 95.57 251.11 90.78 248.90 87.01 C 245.31 79.62 241.84 72.17 237.89 64.97 C 237.05 63.63 237.08 62.01 236.88 60.51 Z" />
<path fill="#ffffff" d=" M 244.61 60.84 C 247.18 61.49 249.90 62.29 251.55 64.53 C 258.22 72.63 264.58 81.09 269.59 90.34 C 270.64 92.63 273.72 92.05 275.56 93.40 C 278.65 95.66 280.66 99.12 283.98 101.11 C 282.41 98.44 280.38 96.08 278.59 93.56 C 281.63 94.96 284.91 96.30 287.17 98.88 C 289.54 102.23 290.55 106.33 291.34 110.30 C 289.77 109.77 288.17 109.19 286.98 108.01 C 281.74 103.22 276.30 98.31 269.62 95.63 C 267.80 94.79 265.25 94.83 264.31 92.74 C 260.23 86.32 257.17 79.32 252.92 73.02 C 250.35 68.82 247.08 65.10 244.61 60.84 Z" />
<path fill="#ffffff" d=" M 256.06 61.20 C 259.61 62.05 263.70 61.79 266.58 64.37 C 270.42 67.53 274.11 70.87 277.84 74.17 C 281.14 77.07 283.80 80.74 287.72 82.88 C 281.87 74.80 273.44 68.97 266.54 61.82 C 266.78 61.45 267.26 60.70 267.50 60.32 C 275.08 66.39 282.08 73.19 288.68 80.30 C 292.11 83.82 294.37 88.40 294.97 93.28 C 290.66 90.93 288.20 86.45 284.14 83.78 C 280.12 80.71 275.18 79.19 270.22 78.53 C 265.84 72.48 261.06 66.74 256.06 61.20 Z" />
<path fill="#ffffff" d=" M 50.40 63.30 C 51.51 61.89 53.40 62.10 54.99 61.89 C 48.50 70.53 42.95 79.83 36.24 88.31 C 34.93 90.42 32.21 90.08 30.11 90.69 C 22.30 91.99 18.33 100.25 10.91 102.40 C 11.58 99.27 12.40 96.04 14.32 93.41 C 16.07 91.29 18.66 90.11 20.95 88.69 C 19.23 91.24 17.38 93.75 16.40 96.70 C 21.42 92.56 23.46 85.55 29.37 82.39 C 31.50 81.06 34.02 80.73 36.45 80.36 C 41.35 74.88 45.33 68.62 50.40 63.30 Z" />
<path fill="#ffffff" d=" M 67.35 62.12 C 68.42 62.65 69.40 63.32 70.40 63.96 C 66.32 70.70 63.43 78.06 60.41 85.31 C 58.42 90.83 53.30 95.09 47.58 96.22 C 49.00 95.34 50.51 94.59 52.03 93.88 C 55.77 86.71 57.99 78.87 61.65 71.65 C 63.37 68.40 64.36 64.48 67.35 62.12 Z" />
<path fill="#ffffff" d=" M 251.88 61.68 C 253.43 62.04 255.04 62.49 256.08 63.80 C 261.02 68.96 265.42 74.62 269.61 80.40 C 277.48 79.73 280.70 88.04 286.64 91.41 C 284.77 88.28 281.91 85.93 279.84 82.96 C 284.18 85.56 287.70 89.29 291.05 93.03 C 293.28 95.51 294.50 98.74 294.26 102.09 C 289.00 98.48 284.48 93.47 278.06 91.91 C 275.34 90.78 271.37 91.27 270.08 88.04 C 265.07 78.55 257.98 70.43 251.88 61.68 Z" />
<path fill="#ffffff" d=" M 56.37 71.46 C 58.66 68.12 60.74 64.48 64.14 62.13 C 61.91 67.78 58.89 73.08 56.69 78.75 C 54.68 83.11 53.46 87.84 51.05 92.01 C 48.72 93.79 45.90 94.79 43.52 96.50 C 39.79 99.13 36.32 102.14 32.25 104.25 C 32.09 102.84 31.94 101.44 31.80 100.03 C 34.88 98.10 38.33 97.00 41.73 95.81 C 43.00 95.46 43.43 94.05 44.10 93.08 C 47.88 85.70 51.75 78.35 56.37 71.46 Z" />
<path fill="#ffffff" d=" M 66.89 74.83 C 68.58 70.63 70.49 66.46 73.17 62.79 C 72.34 67.34 69.37 71.06 66.89 74.83 Z" />
<path fill="#ffffff" d=" M 206.29 64.72 C 207.45 64.02 208.44 63.03 209.69 62.49 C 211.97 65.81 214.00 69.42 217.19 71.98 C 216.23 69.16 214.30 66.85 212.47 64.55 L 212.99 64.18 L 213.38 63.91 C 215.80 67.21 218.99 69.79 221.62 72.90 C 221.48 74.37 220.19 76.41 218.52 75.45 C 213.38 73.33 209.96 68.67 206.29 64.72 Z" />
<path fill="#ffffff" d=" M 241.97 62.45 C 246.19 65.06 248.77 69.47 251.48 73.49 C 255.54 79.59 258.52 86.32 262.30 92.60 C 264.56 97.69 271.24 96.63 274.92 100.18 C 276.68 101.14 274.90 104.52 273.08 103.00 C 268.73 100.49 265.52 96.22 260.70 94.48 C 258.80 93.89 256.79 93.14 256.13 91.05 C 251.76 81.34 247.31 71.67 241.97 62.45 Z" />
<path fill="#ffffff" d=" M 234.91 63.88 C 237.01 66.06 238.62 68.72 239.29 71.70 C 237.27 69.45 235.77 66.77 234.91 63.88 Z" />
<path fill="#ffffff" d=" M 94.91 74.97 C 97.20 71.44 99.49 67.89 102.07 64.55 C 102.63 69.42 97.80 72.60 97.09 77.24 C 101.21 74.07 101.65 67.91 106.23 65.34 C 106.05 70.22 103.09 74.42 100.01 77.98 C 98.85 79.50 96.98 79.91 95.20 80.17 C 95.00 78.47 93.67 76.54 94.91 74.97 Z" />
<path fill="#ffffff" d=" M 198.65 66.96 C 200.00 66.61 201.36 66.27 202.72 65.93 C 205.27 69.28 207.26 73.06 210.15 76.16 C 209.11 72.62 206.74 69.71 204.99 66.52 C 208.21 69.68 216.46 74.90 211.01 79.78 C 204.92 78.04 201.49 72.17 198.65 66.96 Z" />
<path fill="#ffffff" d=" M 230.94 69.05 C 231.67 67.52 232.38 65.98 233.10 64.45 C 235.91 69.28 238.57 74.19 241.17 79.13 C 241.72 78.27 242.27 77.41 242.85 76.56 C 243.56 79.37 244.64 82.07 245.46 84.85 C 237.98 82.77 234.90 74.93 230.94 69.05 Z" />
<path fill="#ffffff" d=" M 73.52 66.64 C 74.28 67.30 75.04 67.95 75.80 68.61 C 73.25 75.37 69.55 82.72 62.32 85.40 C 63.03 83.16 63.87 80.97 64.95 78.89 C 69.17 76.00 70.68 70.70 73.52 66.64 Z" />
<path fill="#ffffff" d=" M 102.31 78.25 C 104.73 74.32 106.35 69.72 109.85 66.59 C 109.27 71.58 105.82 75.54 104.84 80.40 C 108.29 77.07 109.29 72.23 111.39 68.09 C 111.75 68.10 112.46 68.11 112.82 68.12 C 112.87 73.48 110.41 79.75 105.48 82.37 C 103.24 83.98 100.82 80.13 102.31 78.25 Z" />
<path fill="#ffffff" d=" M 184.31 74.44 C 183.05 71.92 184.82 69.40 185.63 67.05 C 187.42 71.49 188.40 76.29 190.97 80.39 C 190.62 76.07 188.02 72.32 187.85 67.97 C 190.50 71.68 192.62 75.75 195.41 79.38 C 194.13 81.04 193.20 83.31 190.93 83.76 C 187.66 81.61 185.80 77.94 184.31 74.44 Z" />
<path fill="#ffffff" d=" M 195.87 67.45 C 199.06 70.55 201.46 74.37 203.78 78.14 C 204.47 80.07 202.45 80.96 201.31 82.04 C 196.69 78.74 193.32 74.07 190.89 69.00 C 192.38 68.96 194.29 68.16 195.15 69.90 C 197.34 72.60 198.96 75.75 201.60 78.08 C 200.22 74.26 197.37 71.22 195.87 67.45 Z" />
<path fill="#ffffff" d=" M 72.72 78.67 C 75.11 75.29 76.33 71.27 78.26 67.64 C 78.82 68.87 78.86 70.09 78.37 71.28 C 76.72 75.54 73.73 79.11 72.05 83.35 C 75.47 80.76 76.98 76.56 79.29 73.09 C 80.53 73.15 81.77 73.23 83.01 73.30 C 80.87 78.59 77.15 83.20 72.57 86.58 C 70.62 88.22 68.26 87.15 66.21 86.38 C 68.36 83.80 70.76 81.41 72.72 78.67 Z" />
<path fill="#ffffff" d=" M 114.95 68.50 C 115.68 68.64 117.12 68.92 117.84 69.06 C 116.90 73.12 115.22 76.97 114.27 81.02 C 117.85 77.90 117.75 72.38 119.46 68.19 C 122.45 73.77 119.38 81.28 113.88 83.99 C 112.88 82.70 111.90 81.40 110.94 80.09 C 112.68 76.38 114.03 72.50 114.95 68.50 Z" />
<path fill="#ffffff" d=" M 228.28 71.87 C 228.51 71.07 228.78 70.28 229.09 69.51 C 231.20 72.65 232.99 76.00 235.34 78.98 C 234.94 79.41 234.55 79.85 234.17 80.29 C 232.41 77.35 229.76 74.98 228.28 71.87 Z" />
<path fill="#ffffff" d=" M 239.29 71.70 L 240.06 71.81 C 240.04 72.19 240.00 72.97 239.98 73.36 C 239.70 73.11 239.13 72.62 238.85 72.37 L 239.29 71.70 Z" />
<path fill="#ffffff" d=" M 222.80 72.35 C 223.78 72.59 225.73 73.07 226.70 73.31 C 229.73 76.30 232.30 79.74 235.33 82.74 C 235.83 81.98 236.34 81.22 236.86 80.48 C 237.93 82.07 239.15 83.58 240.20 85.19 C 238.38 87.08 235.53 87.32 233.46 85.69 C 228.82 82.34 224.62 77.89 222.80 72.35 Z" />
<path fill="#ffffff" d=" M 239.98 73.36 C 242.42 72.94 240.61 76.29 239.58 74.17 L 239.98 73.36 Z" />
<path fill="#ffffff" d=" M 83.95 74.62 L 84.72 74.51 L 85.08 75.21 C 84.78 75.46 84.16 75.97 83.85 76.22 C 83.88 75.82 83.93 75.02 83.95 74.62 Z" />
<path fill="#ffffff" d=" M 122.43 74.23 C 122.96 74.27 124.01 74.34 124.54 74.37 C 124.46 87.28 124.45 100.18 124.53 113.08 C 118.66 105.38 121.61 95.31 121.73 86.47 C 121.23 86.65 120.23 87.02 119.73 87.20 C 120.50 90.60 117.59 94.13 114.18 94.24 C 113.11 93.62 112.08 92.97 111.07 92.26 C 112.54 89.10 113.74 85.55 116.95 83.68 C 116.19 86.59 115.20 89.47 114.99 92.49 C 116.24 90.40 117.21 88.16 118.23 85.95 C 119.71 86.60 121.74 85.65 121.78 83.97 C 122.20 80.74 122.26 77.48 122.43 74.23 Z" />
<path fill="#ffffff" d=" M 129.43 74.35 C 131.16 74.35 132.89 74.36 134.62 74.36 C 134.57 89.53 134.58 104.69 134.62 119.85 C 132.88 118.79 131.14 117.73 129.41 116.66 C 129.49 102.56 129.45 88.45 129.43 74.35 Z" />
<path fill="#ffffff" d=" M 139.51 74.44 C 141.25 74.39 142.98 74.35 144.72 74.31 C 144.70 91.24 144.67 108.17 144.73 125.09 C 142.98 124.14 141.22 123.19 139.48 122.22 C 139.65 106.29 139.58 90.36 139.51 74.44 Z" />
<path fill="#ffffff" d=" M 149.63 74.46 C 151.36 74.40 153.09 74.35 154.82 74.29 C 154.77 92.04 154.81 109.79 154.79 127.54 C 154.10 127.79 152.72 128.29 152.03 128.54 C 151.43 128.18 150.22 127.46 149.62 127.10 C 149.77 109.55 149.75 92.01 149.63 74.46 Z" />
<path fill="#ffffff" d=" M 159.88 74.30 C 161.55 74.32 163.22 74.34 164.90 74.36 C 164.83 90.41 164.89 106.47 164.87 122.53 C 163.15 123.38 161.44 124.25 159.72 125.11 C 159.98 108.18 159.70 91.24 159.88 74.30 Z" />
<path fill="#ffffff" d=" M 169.90 74.34 C 171.63 74.34 173.36 74.35 175.09 74.35 C 175.11 87.92 175.16 101.49 175.08 115.06 C 175.25 117.91 171.56 118.40 169.81 119.88 C 169.92 104.70 169.75 89.52 169.90 74.34 Z" />
<path fill="#ffffff" d=" M 180.22 74.19 C 182.22 73.84 182.19 76.63 183.25 77.75 C 183.57 77.95 184.23 78.36 184.55 78.56 C 185.64 80.42 186.62 82.34 187.33 84.37 C 184.80 83.97 184.37 81.57 183.13 79.85 C 181.92 83.81 183.29 88.00 183.15 92.06 C 183.47 99.15 184.93 107.17 179.92 113.08 C 180.49 100.13 179.92 87.15 180.22 74.19 Z" />
<path fill="#ffffff" d=" M 83.08 76.44 L 83.85 76.22 L 84.07 76.99 C 83.75 77.28 83.10 77.88 82.77 78.17 C 82.85 77.74 83.00 76.87 83.08 76.44 Z" />
<path fill="#ffffff" d=" M 215.66 76.10 C 222.64 77.25 224.47 85.27 230.39 88.16 C 227.63 83.72 223.28 80.44 221.08 75.63 C 225.79 79.97 229.53 85.35 234.91 88.99 C 234.33 91.87 231.51 94.02 228.73 92.22 C 223.00 88.18 219.63 81.72 215.66 76.10 Z" />
<path fill="#ffffff" d=" M 76.81 88.86 C 80.88 85.60 82.68 80.47 85.87 76.46 C 86.49 76.89 87.73 77.75 88.35 78.18 C 85.09 84.26 82.16 91.93 75.07 94.33 C 74.05 92.72 72.52 91.11 72.98 89.02 C 74.90 86.43 77.98 84.82 79.21 81.71 C 79.57 82.15 79.92 82.59 80.27 83.03 C 78.85 84.80 77.65 86.75 76.81 88.86 Z" />
<path fill="#ffffff" d=" M 88.04 83.34 C 88.62 80.66 89.66 77.83 92.17 76.38 C 91.18 78.91 89.86 81.32 88.04 83.34 Z" />
<path fill="#ffffff" d=" M 82.23 79.18 C 82.37 78.93 82.63 78.42 82.77 78.17 C 82.63 78.42 82.37 78.93 82.23 79.18 Z" />
<path fill="#ffffff" d=" M 82.23 79.18 C 83.38 82.19 78.69 79.66 82.23 79.18 Z" />
<path fill="#ffffff" d=" M 92.88 78.31 C 93.43 79.90 94.26 81.65 93.29 83.27 C 91.05 88.00 88.89 93.31 84.45 96.41 C 82.60 97.79 80.70 96.49 79.25 95.22 C 81.45 92.35 83.64 89.48 86.00 86.73 C 85.30 88.26 84.56 89.78 83.81 91.28 C 84.01 91.44 84.41 91.74 84.61 91.89 C 87.46 87.42 90.14 82.85 92.88 78.31 Z" />
<path fill="#ffffff" d=" M 213.49 78.56 C 216.36 83.21 218.52 88.40 222.38 92.38 C 221.12 88.30 218.13 85.08 216.58 81.12 C 220.35 85.44 223.70 90.10 227.56 94.34 C 225.93 95.56 224.01 96.17 222.00 96.32 C 218.19 91.75 214.77 86.86 211.68 81.79 C 212.13 80.64 212.74 79.56 213.49 78.56 Z" />
<path fill="#ffffff" d=" M 206.19 83.96 C 205.04 82.37 204.95 80.43 205.60 78.62 C 209.10 83.42 210.63 89.59 215.22 93.58 C 213.68 89.39 210.81 85.88 209.15 81.75 C 212.83 85.82 215.24 90.81 218.55 95.16 C 217.65 95.76 216.75 96.36 215.86 96.96 C 211.28 93.80 209.00 88.55 206.19 83.96 Z" />
<path fill="#ffffff" d=" M 91.88 92.49 C 95.38 88.79 96.81 83.66 100.33 79.96 C 99.51 83.61 97.98 87.04 96.26 90.34 C 94.44 93.66 91.68 96.98 87.66 97.38 C 88.76 94.90 90.08 92.53 91.54 90.25 C 91.63 90.81 91.79 91.93 91.88 92.49 Z" />
<path fill="#ffffff" d=" M 195.90 80.16 C 200.86 82.77 203.80 87.57 207.12 91.84 C 207.49 91.68 208.24 91.36 208.62 91.19 C 209.44 92.58 210.27 93.97 211.09 95.36 C 209.74 95.43 208.17 96.16 207.06 95.03 C 202.15 91.14 198.77 85.66 195.90 80.16 Z" />
<path fill="#ffffff" d=" M 93.26 87.81 C 93.59 85.25 95.10 82.91 97.08 81.29 C 96.04 83.54 95.27 86.25 93.26 87.81 Z" />
<path fill="#ffffff" d=" M 88.04 83.34 C 89.49 86.33 84.69 83.37 88.04 83.34 Z" />
<path fill="#ffffff" d=" M 101.82 82.74 C 102.49 86.76 98.69 89.72 97.89 93.48 C 101.76 90.79 101.94 84.54 107.09 83.49 C 104.80 88.62 102.19 94.43 96.73 96.85 C 96.43 96.51 95.82 95.83 95.51 95.50 C 97.48 91.18 99.58 86.92 101.82 82.74 Z" />
<path fill="#ffffff" d=" M 192.76 85.35 C 193.68 84.52 194.61 83.69 195.53 82.86 C 196.07 85.93 197.23 88.85 199.07 91.38 C 201.46 91.34 202.38 93.55 203.37 95.30 C 197.99 94.77 194.68 89.92 192.76 85.35 Z" />
<path fill="#ffffff" d=" M 202.33 82.50 C 204.92 84.20 206.19 87.11 207.44 89.82 C 205.27 87.74 203.46 85.29 202.33 82.50 Z" />
<path fill="#ffffff" d=" M 107.46 90.91 C 108.73 88.13 109.67 85.07 111.99 82.94 C 111.82 87.74 109.76 93.53 104.91 95.35 C 102.21 95.54 105.11 91.72 105.14 90.31 C 105.72 90.46 106.88 90.76 107.46 90.91 Z" />
<path fill="#ffffff" d=" M 184.13 84.83 C 186.83 86.02 188.91 88.12 191.08 90.05 C 190.03 87.97 188.87 85.94 187.89 83.82 C 191.54 85.82 193.14 89.74 195.13 93.15 C 189.94 95.24 184.06 90.16 184.13 84.83 Z" />
<path fill="#ffffff" d=" M 106.19 88.30 C 109.53 88.43 104.62 91.26 106.19 88.30 Z" />
<path fill="#ffffff" d=" M 110.79 117.03 C 111.45 111.04 114.82 105.59 119.28 101.65 C 119.92 105.90 115.17 108.35 113.98 112.18 C 116.18 110.61 117.89 108.50 119.56 106.40 C 120.23 108.06 120.91 109.73 121.61 111.38 C 118.48 114.08 114.73 115.86 110.79 117.03 Z" />
<path fill="#ffffff" d=" M 184.89 102.53 C 190.43 105.54 193.73 111.68 193.77 117.90 C 189.62 117.03 185.87 114.58 183.70 110.90 C 183.89 109.67 184.20 108.46 184.63 107.28 C 186.82 109.93 188.73 112.84 191.26 115.21 C 190.26 110.36 184.65 107.83 184.89 102.53 Z" />
<path fill="#ffffff" d=" M 57.23 111.22 C 59.51 113.46 61.93 115.72 63.32 118.65 C 65.51 124.20 65.16 130.25 65.09 136.10 C 65.02 139.42 66.96 142.28 68.40 145.12 C 64.39 143.32 60.27 141.75 56.40 139.65 C 52.18 137.48 50.06 132.96 48.02 128.92 C 46.11 125.21 45.58 121.03 45.65 116.91 C 48.87 119.43 52.61 121.65 54.69 125.29 C 56.17 128.87 57.03 132.67 58.50 136.26 C 54.32 131.70 52.33 125.57 47.90 121.24 C 51.62 129.92 56.82 139.08 66.09 142.73 C 63.77 138.89 59.80 136.11 58.49 131.66 C 56.57 125.07 55.36 117.96 57.23 111.22 Z" />
<path fill="#ffffff" d=" M 117.83 116.03 C 119.72 114.94 121.61 113.83 123.53 112.79 C 122.17 115.68 120.40 118.35 119.09 121.26 C 121.74 119.96 122.84 117.08 124.43 114.79 C 125.42 115.80 126.42 116.81 127.28 117.94 C 124.67 121.21 120.83 123.21 116.83 124.25 C 116.91 121.48 117.22 118.72 117.83 116.03 Z" />
<path fill="#ffffff" d=" M 181.46 112.55 C 183.87 113.82 185.79 115.77 187.66 117.71 C 187.44 119.51 187.25 121.32 187.08 123.13 C 183.82 121.61 180.74 119.72 178.04 117.34 C 178.84 116.41 179.65 115.49 180.46 114.57 C 182.12 116.40 183.84 118.22 186.00 119.47 C 184.57 117.11 182.81 114.96 181.46 112.55 Z" />
<path fill="#ffffff" d=" M 229.85 129.78 C 235.94 125.02 241.05 118.99 247.67 114.96 C 246.75 122.52 244.42 129.83 242.68 137.24 C 241.71 134.47 240.71 131.71 239.70 128.97 C 242.22 124.73 245.16 120.70 246.82 116.02 C 243.48 119.77 241.23 124.28 238.63 128.53 C 235.70 128.93 232.78 129.37 229.85 129.78 Z" />
<path fill="#ffffff" d=" M 104.01 128.86 C 104.23 123.89 106.01 118.96 109.35 115.22 C 107.86 119.84 106.77 124.83 104.01 128.86 Z" />
<path fill="#ffffff" d=" M 194.87 115.65 C 197.92 119.50 199.32 124.37 199.85 129.18 C 198.37 127.55 197.95 125.43 197.96 123.27 C 197.47 123.96 196.98 124.65 196.51 125.35 C 196.56 126.29 196.67 128.19 196.73 129.14 C 194.20 128.22 191.41 127.48 189.51 125.45 C 187.86 124.01 189.14 121.67 188.98 119.87 C 190.67 122.03 192.27 124.28 194.26 126.18 C 193.35 123.21 191.39 120.77 189.72 118.21 C 192.98 118.55 195.80 120.24 196.14 123.76 C 196.54 123.07 196.93 122.38 197.31 121.69 C 196.26 119.78 195.33 117.79 194.87 115.65 Z" />
<path fill="#4e6297" d=" M 60.38 128.93 C 59.48 125.00 57.90 120.91 59.07 116.86 C 60.39 124.44 62.58 131.82 64.46 139.26 C 62.00 136.34 61.43 132.48 60.38 128.93 Z" />
<path fill="#ffffff" d=" M 71.38 141.56 C 69.60 132.48 72.72 122.38 80.09 116.55 C 80.25 120.38 80.53 124.26 80.02 128.07 C 78.56 134.08 74.92 139.23 72.55 144.88 C 71.55 147.08 72.38 149.48 73.18 151.60 C 72.10 150.69 71.00 149.80 69.91 148.92 C 71.67 144.76 73.11 140.49 74.04 136.06 C 75.22 130.47 77.97 125.39 79.34 119.86 C 74.38 125.96 73.51 134.22 71.38 141.56 Z" />
<path fill="#ffffff" d=" M 107.18 129.19 C 107.73 124.75 108.52 118.48 113.98 117.66 C 112.43 120.38 110.60 123.01 109.83 126.09 C 111.98 123.77 113.71 121.11 115.63 118.60 C 115.24 120.88 115.89 123.63 114.42 125.61 C 112.36 127.37 109.65 128.15 107.18 129.19 Z" />
<path fill="#ffffff" d=" M 124.61 124.97 C 126.40 122.94 128.14 120.84 129.92 118.78 C 130.57 119.43 131.23 120.07 131.89 120.72 C 129.09 123.24 125.94 125.36 122.45 126.83 C 122.16 126.40 121.57 125.54 121.28 125.12 C 122.39 124.10 123.51 123.10 124.62 122.09 C 124.62 122.81 124.61 124.25 124.61 124.97 Z" />
<path fill="#ffffff" d=" M 173.79 118.61 C 176.35 119.73 177.87 122.19 179.94 123.93 C 178.96 122.04 177.96 120.16 176.95 118.29 C 179.79 120.41 181.90 123.46 181.81 127.12 C 178.57 124.90 175.52 122.20 173.79 118.61 Z" />
<path fill="#ffffff" d=" M 169.82 120.70 C 172.84 122.39 174.56 125.54 176.95 127.91 L 175.11 123.38 C 177.41 125.72 180.17 128.05 180.26 131.63 C 175.94 128.95 171.88 125.46 169.82 120.70 Z" />
<path fill="#ffffff" d=" M 126.07 129.61 C 128.91 126.64 130.95 122.69 134.92 121.02 C 132.18 125.78 128.11 129.89 123.00 132.07 C 122.58 129.24 124.58 127.42 126.68 125.94 C 126.53 126.86 126.22 128.70 126.07 129.61 Z" />
<path fill="#ffffff" d=" M 133.52 127.41 C 133.60 125.36 135.72 124.20 136.83 122.68 C 136.52 125.37 137.38 128.34 136.08 130.82 C 135.13 129.76 134.15 128.70 133.52 127.41 Z" />
<path fill="#ffffff" d=" M 166.81 122.53 C 168.40 125.43 166.08 128.49 164.37 130.74 C 163.59 128.55 161.64 125.87 164.25 124.06 C 164.25 125.20 164.26 127.49 164.27 128.63 C 165.12 126.60 165.90 124.54 166.81 122.53 Z" />
<path fill="#ffffff" d=" M 183.36 122.91 C 185.33 124.16 187.82 125.18 188.31 127.76 C 187.41 126.84 186.34 126.19 185.12 125.79 C 185.36 127.36 186.44 128.75 188.02 129.14 C 188.09 128.80 188.24 128.10 188.31 127.76 L 188.57 126.40 C 189.57 128.51 190.19 130.77 190.38 133.10 C 187.82 131.53 185.13 129.99 183.16 127.67 C 183.06 126.08 183.26 124.49 183.36 122.91 Z" />
<path fill="#ffffff" d=" M 138.57 123.56 C 139.04 123.99 139.98 124.84 140.45 125.27 C 144.26 125.97 142.65 131.18 143.51 133.94 C 139.95 131.66 138.60 127.60 138.57 123.56 Z" />
<path fill="#ffffff" d=" M 169.38 123.14 C 170.10 124.44 170.81 125.75 171.51 127.06 C 171.06 127.49 170.15 128.36 169.70 128.80 C 169.41 128.49 168.83 127.88 168.54 127.57 C 168.82 126.09 169.09 124.61 169.38 123.14 Z" />
<path fill="#ffffff" d=" M 113.54 133.44 C 114.47 130.09 115.20 126.01 119.02 124.74 C 117.96 126.85 116.49 128.81 115.98 131.15 C 117.50 129.91 118.72 128.36 119.94 126.83 C 120.41 127.39 121.35 128.52 121.82 129.08 C 119.22 130.81 116.46 132.32 113.54 133.44 Z" />
<path fill="#ffffff" d=" M 159.06 127.06 C 159.59 126.86 160.65 126.45 161.18 126.25 C 160.70 128.80 160.68 133.76 156.94 133.48 L 157.73 131.86 C 156.73 131.85 155.73 131.85 154.73 131.85 C 154.35 133.83 153.29 135.54 152.19 137.18 C 149.30 135.02 148.63 131.50 148.52 128.11 C 150.36 129.31 151.35 131.24 152.27 133.15 C 152.76 131.88 153.26 130.62 153.79 129.36 C 154.58 129.72 156.15 130.44 156.94 130.80 C 156.96 129.99 157.01 128.38 157.04 127.58 C 157.51 128.79 157.98 130.01 158.44 131.23 C 158.65 129.84 158.85 128.45 159.06 127.06 Z" />
<path fill="#4e6297" d=" M 185.12 125.79 C 186.34 126.19 187.41 126.84 188.31 127.76 C 188.24 128.10 188.09 128.80 188.02 129.14 C 186.44 128.75 185.36 127.36 185.12 125.79 Z" />
<path fill="#ffffff" d=" M 143.94 126.24 C 147.51 127.36 147.26 131.32 147.16 134.33 C 145.20 132.06 144.36 129.15 143.94 126.24 Z" />
<path fill="#ffffff" d=" M 103.17 130.33 C 104.22 130.02 105.26 129.72 106.32 129.42 C 105.78 132.46 104.85 135.80 101.58 136.92 C 102.04 134.70 102.58 132.51 103.17 130.33 Z" />
<path fill="#ffffff" d=" M 108.44 130.36 C 109.92 129.44 111.60 128.88 113.20 128.20 C 112.70 130.11 112.17 132.01 111.64 133.91 C 109.91 134.56 108.16 135.16 106.40 135.72 C 106.97 133.95 106.68 131.52 108.44 130.36 Z" />
<path fill="#ffffff" d=" M 166.01 131.97 C 166.40 130.94 166.87 129.96 167.33 128.97 C 167.80 129.48 168.72 130.51 169.18 131.02 C 168.94 131.89 168.46 133.62 168.22 134.49 C 167.45 133.68 166.65 132.89 166.01 131.97 Z" />
<path fill="#ffffff" d=" M 192.94 128.98 C 195.80 129.91 196.83 132.54 197.21 135.25 C 194.45 134.79 191.48 133.84 191.24 130.56 C 192.84 131.57 194.39 132.67 195.96 133.74 C 194.93 132.17 193.92 130.58 192.94 128.98 Z" />
<path fill="#ffffff" d=" M 197.16 130.15 C 198.16 130.20 200.16 130.31 201.16 130.36 C 201.68 132.10 202.16 133.86 202.61 135.63 C 200.17 134.50 198.29 132.58 197.16 130.15 Z" />
<path fill="#ffffff" d=" M 235.90 134.03 C 235.44 132.57 236.84 129.97 238.46 130.09 C 238.69 131.57 237.44 133.83 235.90 134.03 Z" />
<path fill="#ffffff" d=" M 138.44 130.49 C 139.84 133.07 140.50 135.95 140.36 138.89 C 138.09 137.61 136.89 135.34 135.98 133.02 C 136.59 132.38 137.82 131.12 138.44 130.49 Z" />
<path fill="#ffffff" d=" M 181.29 130.79 C 183.27 132.59 185.03 134.61 187.05 136.37 C 186.29 134.75 185.45 133.17 184.65 131.57 C 187.46 133.07 190.61 135.49 190.20 139.08 C 185.94 138.40 182.18 135.05 181.29 130.79 Z" />
<path fill="#ffffff" d=" M 184.65 131.57 C 184.01 131.17 184.01 131.17 184.65 131.57 Z" />
<path fill="#ffffff" d=" M 115.08 134.57 C 117.22 133.62 119.32 132.58 121.39 131.49 C 122.00 132.31 122.60 133.13 123.21 133.94 C 120.31 136.15 117.12 137.97 113.67 139.15 C 114.10 137.61 114.57 136.08 115.08 134.57 Z" />
<path fill="#ffffff" d=" M 160.04 134.90 C 160.40 133.77 160.89 132.68 161.36 131.60 C 161.69 132.40 162.36 133.99 162.70 134.79 C 162.77 133.82 162.93 131.87 163.00 130.90 C 164.98 132.96 163.56 135.40 162.22 137.28 C 161.46 136.52 160.73 135.73 160.04 134.90 Z" />
<path fill="#ffffff" d=" M 156.25 140.31 C 154.23 138.59 154.02 135.82 156.40 134.25 C 157.07 134.97 157.72 135.71 158.36 136.48 C 157.65 137.75 156.95 139.03 156.25 140.31 Z" />
<path fill="#ffffff" d=" M 232.95 139.03 C 232.75 137.22 234.21 134.67 235.90 134.03 C 236.05 135.84 234.75 138.53 232.95 139.03 Z" />
<path fill="#ffffff" d=" M 101.27 138.09 C 105.44 137.46 109.51 136.36 113.43 134.79 C 112.49 137.61 110.26 140.04 107.02 139.51 C 107.25 139.78 107.71 140.32 107.94 140.59 C 105.56 141.92 103.34 143.54 100.86 144.69 C 99.85 144.28 98.90 143.74 97.89 143.34 C 97.10 144.02 96.39 144.79 95.66 145.54 C 96.83 145.46 99.16 145.28 100.32 145.19 C 97.78 147.01 95.24 148.84 92.73 150.72 C 91.58 149.86 90.43 149.03 89.24 148.24 C 89.56 149.90 90.86 150.74 92.45 151.15 C 91.11 151.91 89.76 152.65 88.40 153.37 C 88.46 152.67 88.57 151.29 88.63 150.59 C 87.43 151.99 86.27 153.42 85.18 154.90 L 83.97 155.04 C 84.73 155.62 85.50 156.21 86.25 156.82 C 85.20 158.00 84.21 159.22 83.25 160.48 C 82.70 159.32 82.15 158.16 81.60 157.00 C 81.29 157.41 80.67 158.23 80.36 158.64 C 80.17 158.46 79.80 158.11 79.62 157.93 C 83.51 153.85 86.10 148.48 91.26 145.72 C 92.45 146.38 93.63 147.02 94.81 147.68 C 94.81 147.33 94.79 146.62 94.79 146.26 C 94.10 146.03 92.73 145.56 92.04 145.32 C 93.89 143.97 95.72 142.59 97.50 141.13 C 98.99 141.65 100.47 142.18 101.94 142.76 C 101.77 142.09 101.44 140.75 101.27 140.08 C 102.91 140.36 104.56 140.62 106.21 140.88 C 104.58 139.91 102.90 139.05 101.27 138.09 Z" />
<path fill="#ffffff" d=" M 123.10 136.06 C 123.68 135.52 123.68 135.52 123.10 136.06 Z" />
<path fill="#ffffff" d=" M 123.24 156.31 C 127.17 148.79 130.50 140.91 135.24 133.85 C 135.39 139.38 131.99 144.06 130.02 149.01 C 126.83 156.55 122.73 163.70 119.88 171.38 C 122.15 168.66 123.57 165.38 125.16 162.24 C 129.18 154.23 133.07 146.16 136.74 137.98 C 137.93 138.95 139.13 139.92 140.32 140.90 C 135.43 152.43 132.27 164.80 125.56 175.48 C 123.06 179.59 116.18 177.57 115.94 172.98 C 117.52 167.10 120.69 161.80 123.24 156.31 Z" />
<path fill="#ffffff" d=" M 142.95 134.94 C 144.34 135.23 145.75 135.51 147.16 135.76 C 147.06 137.12 146.96 138.48 146.85 139.84 C 145.45 138.28 144.19 136.62 142.95 134.94 Z" />
<path fill="#ffffff" d=" M 163.18 140.84 C 163.52 138.64 164.42 136.59 165.46 134.64 C 164.87 137.57 167.05 139.33 168.63 141.35 C 173.57 150.64 177.64 160.43 183.09 169.43 C 179.69 158.73 173.33 149.21 169.24 138.76 C 168.65 137.22 168.56 135.63 168.96 134.00 C 171.88 137.31 173.51 141.45 175.52 145.32 C 179.69 153.83 184.09 162.26 187.42 171.15 C 186.40 173.35 185.39 176.07 182.73 176.69 C 180.38 177.68 177.90 176.14 176.87 174.02 C 172.06 165.52 169.08 156.17 166.14 146.91 C 165.50 144.93 165.02 142.85 165.43 140.76 C 164.87 140.78 163.74 140.82 163.18 140.84 Z" />
<path fill="#ffffff" d=" M 123.10 136.06 C 122.53 136.59 122.53 136.59 123.10 136.06 Z" />
<path fill="#ffffff" d=" M 141.75 135.63 C 143.09 138.24 144.73 140.77 147.61 141.85 C 147.10 142.41 146.06 143.51 145.54 144.07 C 143.32 141.76 141.93 138.85 141.75 135.63 Z" />
<path fill="#ffffff" d=" M 190.44 136.62 C 191.61 136.60 192.79 136.57 193.97 136.55 C 194.44 137.50 194.90 138.46 195.37 139.42 C 194.71 139.90 194.06 140.39 193.42 140.88 C 194.84 141.51 196.19 142.28 197.46 143.19 C 195.35 142.69 193.41 141.69 191.54 140.62 C 192.22 140.12 192.90 139.62 193.57 139.12 C 192.51 138.31 191.46 137.47 190.44 136.62 Z" />
<path fill="#ffffff" d=" M 196.12 136.61 C 196.89 136.21 198.43 135.39 199.19 134.98 C 200.40 135.68 200.94 136.63 200.82 137.84 C 200.20 137.92 198.96 138.07 198.33 138.15 C 198.75 139.24 199.16 140.33 199.57 141.43 C 200.56 140.13 201.62 138.88 202.73 137.68 C 203.23 138.34 203.72 139.01 204.22 139.69 C 202.73 140.19 201.38 140.97 200.28 142.10 C 202.36 141.55 204.35 140.69 206.32 139.85 C 205.98 141.03 205.65 142.21 205.32 143.39 C 205.92 143.00 207.11 142.20 207.71 141.80 C 209.97 143.38 212.32 144.84 214.51 146.52 C 216.31 147.76 216.65 150.22 218.33 151.54 C 219.78 152.07 221.28 152.42 222.77 152.85 C 222.24 153.28 221.18 154.14 220.65 154.57 C 220.13 156.98 218.89 159.12 217.41 161.07 C 216.31 157.82 215.11 154.51 215.36 151.03 C 214.69 151.25 214.03 151.48 213.37 151.71 C 211.11 149.83 208.70 148.14 206.25 146.52 C 207.06 146.48 208.68 146.39 209.50 146.34 L 209.22 145.30 C 207.21 144.75 205.16 144.39 203.08 144.60 C 200.95 143.42 198.88 142.15 196.82 140.88 C 196.60 139.45 196.36 138.03 196.12 136.61 Z" />
<path fill="#ffffff" d=" M 148.54 136.01 C 151.33 137.44 151.64 140.49 152.33 143.19 C 152.51 142.11 152.87 139.96 153.05 138.88 C 153.64 140.20 155.08 141.34 154.93 142.90 C 154.21 144.17 153.22 145.25 152.33 146.40 C 149.76 143.53 148.76 139.79 148.54 136.01 Z" />
<path fill="#ffffff" d=" M 160.49 137.18 C 164.58 139.22 158.97 147.69 156.26 143.09 C 156.86 141.75 157.52 140.43 158.24 139.15 C 158.29 140.27 158.38 142.52 158.42 143.64 C 159.47 141.62 159.95 139.38 160.49 137.18 Z" />
<path fill="#ffffff" d=" M 100.57 138.74 C 101.81 139.43 100.67 141.98 99.42 140.63 C 99.71 140.16 100.29 139.21 100.57 138.74 Z" />
<path fill="#ffffff" d=" M 184.61 138.82 C 187.03 139.62 189.37 140.71 191.41 142.27 C 188.88 141.72 186.54 140.53 184.61 138.82 Z" />
<path fill="#ffffff" d=" M 229.94 143.93 C 229.69 142.00 231.24 139.70 232.95 139.03 C 233.09 140.82 231.72 143.43 229.94 143.93 Z" />
<path fill="#ffffff" d=" M 107.53 142.84 C 108.95 141.65 110.46 140.58 111.99 139.52 C 112.73 139.79 114.22 140.34 114.97 140.61 C 112.55 141.54 110.07 142.33 107.53 142.84 Z" />
<path fill="#ffffff" d=" M 141.16 141.92 C 142.09 142.89 143.01 143.86 143.94 144.84 C 140.09 157.31 136.11 169.74 132.05 182.14 C 130.02 183.25 127.89 185.36 125.41 184.45 C 122.92 183.96 120.74 182.23 120.65 179.54 C 124.46 179.06 127.00 176.28 128.87 173.14 C 128.23 175.30 127.51 177.45 127.07 179.66 C 132.14 167.24 136.43 154.49 141.16 141.92 Z" />
<path fill="#ffffff" d=" M 160.30 145.83 C 161.28 144.62 162.26 143.39 163.24 142.18 C 166.96 154.91 171.70 167.29 177.17 179.36 C 177.19 178.83 177.24 177.76 177.27 177.22 C 178.98 177.68 180.70 178.14 182.43 178.58 C 182.42 179.51 182.41 181.37 182.41 182.29 C 181.03 183.35 179.77 184.70 178.07 185.23 C 175.13 185.25 172.44 183.23 171.44 180.50 C 166.47 169.41 162.74 157.74 160.30 145.83 Z" />
<path fill="#ffffff" d=" M 217.77 150.26 C 218.03 147.58 218.19 144.60 220.85 143.13 C 222.81 144.37 225.21 145.40 225.63 147.97 C 223.89 147.10 222.15 144.41 220.18 146.35 C 220.50 148.15 221.49 149.72 222.20 151.38 C 220.71 151.02 219.24 150.65 217.77 150.26 Z" />
<path fill="#ffffff" d=" M 229.53 143.76 L 229.94 143.93 C 230.37 145.62 228.82 146.91 228.21 148.34 C 226.88 150.30 226.10 152.93 223.76 153.93 C 225.28 150.33 227.35 146.99 229.53 143.76 Z" />
<path fill="#ffffff" d=" M 137.76 171.68 C 140.55 162.71 141.93 153.26 145.67 144.61 C 147.19 144.90 148.71 145.19 150.23 145.48 C 151.00 149.63 150.04 153.80 149.68 157.94 C 148.79 169.30 148.21 180.68 146.82 191.99 C 146.46 194.09 146.01 196.78 143.75 197.65 C 140.18 198.50 135.41 198.32 134.06 194.18 C 136.39 192.95 138.74 191.76 141.04 190.48 C 141.20 191.19 141.51 192.60 141.67 193.30 C 144.05 177.36 146.53 161.43 148.71 145.45 L 147.33 145.31 C 145.32 158.90 144.04 172.61 141.29 186.09 C 140.83 191.63 132.85 193.79 129.18 189.96 C 128.40 188.99 127.68 187.97 127.02 186.91 C 128.80 185.72 130.76 184.73 132.32 183.23 C 134.32 179.66 134.88 175.45 137.02 171.92 C 136.83 175.59 135.61 179.07 135.00 182.67 C 136.92 179.34 137.42 175.44 137.76 171.68 Z" />
<path fill="#ffffff" d=" M 53.08 148.37 C 53.53 147.75 54.43 146.50 54.88 145.88 C 57.00 146.63 59.15 147.30 61.31 147.91 C 59.69 151.59 55.56 150.43 53.08 148.37 Z" />
<path fill="#ffffff" d=" M 154.02 154.99 C 153.75 151.80 153.43 148.49 154.62 145.44 C 156.31 152.16 156.66 159.11 157.95 165.91 C 159.31 175.05 161.75 183.98 164.46 192.80 C 164.73 192.54 165.27 192.01 165.55 191.74 C 167.22 192.70 168.91 193.63 170.59 194.57 C 168.48 197.24 164.84 198.78 161.53 197.57 C 158.40 195.53 158.26 191.35 157.53 188.06 C 155.89 177.09 155.06 166.02 154.02 154.99 Z" />
<path fill="#ffffff" d=" M 156.47 145.18 C 157.97 145.96 159.16 147.16 159.46 148.87 C 162.52 159.74 166.28 170.42 168.83 181.43 C 169.18 182.92 169.81 184.33 170.59 185.64 C 170.17 183.89 169.70 182.14 169.19 180.41 C 171.33 183.38 174.10 185.77 177.37 187.42 C 176.22 189.96 174.28 192.75 171.17 192.75 C 167.21 192.51 164.32 189.11 163.58 185.40 C 160.12 172.23 157.67 158.74 156.47 145.18 Z" />
<path fill="#ffffff" d=" M 227.15 152.21 C 229.06 148.55 235.19 148.15 236.86 152.16 C 237.50 154.77 234.70 156.04 232.59 156.26 C 233.35 154.79 234.15 153.35 234.94 151.89 C 234.23 151.60 232.83 151.02 232.12 150.73 C 230.47 151.25 228.81 151.75 227.15 152.21 Z" />
<path fill="#ffffff" d=" M 65.98 153.25 C 67.70 150.11 72.87 151.01 72.79 154.84 C 73.40 154.69 74.60 154.40 75.20 154.26 C 74.34 154.73 73.47 155.19 72.61 155.66 C 72.20 154.99 71.39 153.66 70.98 152.99 C 69.26 154.25 69.72 155.84 70.57 157.40 C 69.59 156.59 68.61 155.79 67.62 154.99 L 68.35 158.22 C 67.42 156.92 64.29 155.07 65.98 153.25 Z" />
<path fill="#ffffff" d=" M 76.13 151.30 C 79.48 151.33 74.68 154.35 76.13 151.30 Z" />
<path fill="#ffffff" d=" M 86.56 154.44 C 86.80 154.13 87.29 153.50 87.53 153.19 L 88.40 153.37 C 89.78 154.60 87.24 155.67 86.56 154.44 Z" />
<path fill="#ffffff" d=" M 75.13 156.32 C 76.77 155.79 77.33 156.34 76.81 157.97 C 75.17 158.49 74.61 157.94 75.13 156.32 Z" />
<path fill="#ffffff" d=" M 229.35 155.68 C 231.11 156.22 233.47 156.82 233.77 159.01 C 233.70 161.55 230.94 162.14 229.13 163.13 C 228.57 162.44 227.46 161.04 226.90 160.34 C 227.92 160.44 229.95 160.63 230.96 160.73 C 231.14 160.32 231.51 159.50 231.69 159.10 C 230.89 157.97 230.10 156.83 229.35 155.68 Z" />
<path fill="#ffffff" d=" M 151.06 155.52 C 152.24 162.95 151.48 170.53 151.71 178.02 C 151.94 183.54 151.07 189.16 152.35 194.59 C 153.51 183.23 151.83 171.72 153.18 160.38 C 154.30 166.15 154.23 172.05 155.00 177.86 C 155.93 185.16 155.71 193.16 160.38 199.32 C 157.56 205.81 147.42 205.54 144.16 199.62 C 148.64 195.72 148.19 189.39 148.81 184.02 C 149.91 174.55 150.01 165.00 151.06 155.52 Z" />
<path fill="#ffffff" d=" M 70.30 158.86 C 72.03 158.88 73.77 158.91 75.50 158.96 C 74.00 160.46 72.42 161.87 70.76 163.21 C 71.74 163.40 73.69 163.78 74.66 163.97 C 71.97 167.06 69.37 163.81 68.48 161.19 C 68.93 160.61 69.84 159.45 70.30 158.86 Z" />
<path fill="#ffffff" d=" M 78.62 162.30 C 78.73 161.26 78.84 160.23 78.95 159.21 C 80.00 160.76 81.07 162.31 82.25 163.76 C 81.18 162.92 79.98 162.43 78.62 162.30 Z" />
<path fill="#ffffff" d=" M 98.05 161.91 C 98.96 162.50 99.87 163.09 100.79 163.69 C 100.43 165.96 100.36 168.27 100.47 170.57 C 99.26 170.69 98.05 170.81 96.84 170.93 C 95.91 167.86 95.81 164.47 98.05 161.91 Z" />
<path fill="#ffffff" d=" M 74.99 163.14 C 75.60 163.69 75.60 163.69 74.99 163.14 Z" />
<path fill="#ffffff" d=" M 74.76 165.34 C 77.00 164.27 79.42 164.20 81.47 165.68 C 82.25 165.46 83.04 165.25 83.82 165.04 C 83.76 165.81 83.65 167.36 83.59 168.13 C 82.86 167.74 82.13 167.35 81.40 166.97 C 79.13 166.68 76.91 166.11 74.76 165.34 Z" />
<path fill="#ffffff" d=" M 216.03 167.00 C 215.54 165.87 216.39 163.90 217.74 164.04 C 218.22 165.13 217.44 167.23 216.03 167.00 Z" />
<path fill="#ffffff" d=" M 85.07 167.44 C 86.23 167.00 88.38 168.71 87.64 169.92 C 86.26 170.30 84.45 168.89 85.07 167.44 Z" />
<path fill="#ffffff" d=" M 215.50 166.98 L 216.03 167.00 C 215.87 170.07 212.93 172.18 211.82 174.98 L 211.18 174.56 L 210.73 174.26 C 212.30 171.82 213.73 169.29 215.50 166.98 Z" />
<path fill="#ffffff" d=" M 61.49 171.27 C 67.19 166.99 75.34 166.21 81.83 169.13 C 85.47 170.54 88.42 173.27 92.19 174.41 C 90.97 173.03 89.61 171.79 88.17 170.65 L 87.64 169.92 C 91.03 170.92 93.08 174.09 95.48 176.47 C 97.43 178.37 98.78 181.38 101.75 181.79 C 103.21 186.99 105.84 191.72 108.82 196.18 C 110.28 198.09 109.87 200.59 110.02 202.83 C 106.79 197.17 104.39 190.77 99.19 186.54 C 99.38 186.17 99.75 185.44 99.94 185.08 C 97.66 181.21 95.29 176.80 90.92 175.00 C 87.27 174.40 83.52 175.43 79.91 174.42 C 76.05 173.28 72.04 173.77 68.09 173.74 C 65.77 173.28 63.67 172.11 61.49 171.27 Z" />
<path fill="#4e6297" d=" M 66.16 171.60 C 66.40 170.74 66.96 170.30 67.83 170.30 C 74.13 169.83 80.74 170.00 86.57 172.72 C 83.62 173.30 80.77 172.11 77.87 171.77 C 73.98 171.30 70.05 171.88 66.16 171.60 Z" />
<path fill="#ffffff" d=" M 202.70 174.20 C 203.41 173.33 204.12 172.46 204.84 171.60 C 206.80 171.75 208.77 171.87 210.75 171.99 C 209.19 174.91 207.13 177.52 204.44 179.48 C 202.59 179.08 200.73 178.71 198.86 178.38 C 201.56 176.53 204.54 175.16 207.40 173.58 C 205.83 173.76 204.26 173.98 202.70 174.20 Z" />
<path fill="#ffffff" d=" M 213.98 173.00 C 214.40 172.73 215.26 172.19 215.68 171.92 C 216.46 174.73 217.32 177.53 217.63 180.44 C 215.95 178.22 215.15 175.50 213.98 173.00 Z" />
<path fill="#ffffff" d=" M 64.59 178.30 C 68.00 176.10 72.00 174.50 76.12 175.44 C 80.98 176.25 86.11 177.59 89.61 181.30 C 82.60 179.48 75.43 176.50 68.08 178.23 C 75.25 179.26 82.49 180.21 89.27 182.93 C 89.35 182.52 89.52 181.71 89.61 181.30 L 89.66 181.04 C 91.79 182.46 94.01 183.72 96.24 184.97 C 91.87 184.34 87.46 183.96 83.04 184.00 C 76.50 184.01 69.84 182.33 64.59 178.30 Z" />
<path fill="#ffffff" d=" M 203.31 186.36 C 206.01 182.47 207.95 178.06 211.18 174.56 C 210.92 175.67 210.66 176.79 210.40 177.90 C 212.16 177.22 212.95 175.32 214.13 173.99 C 214.55 177.07 214.86 180.18 214.84 183.29 C 213.81 181.37 212.84 179.42 211.78 177.53 C 212.27 181.44 213.86 185.52 212.11 189.37 C 211.48 188.11 210.86 186.85 210.26 185.59 C 209.72 185.44 208.64 185.14 208.10 184.99 C 206.86 183.40 210.49 181.27 209.79 179.16 C 208.60 179.34 208.37 180.81 207.68 181.60 C 204.15 187.25 201.05 193.23 196.76 198.35 C 197.98 193.89 200.92 190.22 203.31 186.36 Z" />
<path fill="#ffffff" d=" M 85.75 176.01 C 91.13 175.05 95.05 179.29 97.38 183.55 C 93.04 181.85 89.17 179.15 85.75 176.01 Z" />
<path fill="#4e6297" d=" M 68.08 178.23 C 75.43 176.50 82.60 179.48 89.61 181.30 C 89.52 181.71 89.35 182.52 89.27 182.93 C 82.49 180.21 75.25 179.26 68.08 178.23 Z" />
<path fill="#ffffff" d=" M 197.98 181.44 C 200.64 181.01 203.28 180.44 205.90 179.78 C 204.66 181.68 203.41 183.56 202.08 185.40 C 199.45 185.80 196.85 186.33 194.25 186.84 C 195.71 185.42 197.22 184.05 198.75 182.71 C 198.56 182.40 198.17 181.76 197.98 181.44 Z" />
<path fill="#ffffff" d=" M 96.98 185.25 C 97.58 185.72 97.58 185.72 96.98 185.25 Z" />
<path fill="#ffffff" d=" M 202.53 192.21 C 204.17 190.99 204.45 186.85 206.81 187.22 C 207.73 189.35 208.65 191.59 208.68 193.95 C 208.14 195.40 207.38 196.76 206.65 198.12 C 205.82 196.15 205.02 194.17 204.33 192.15 C 203.88 192.16 202.98 192.19 202.53 192.21 Z" />
<path fill="#ffffff" d=" M 191.19 192.32 C 192.80 190.34 194.77 188.71 196.91 187.32 C 197.90 187.46 199.88 187.73 200.87 187.87 C 198.97 191.09 196.37 193.81 194.22 196.84 C 191.98 197.32 189.73 197.74 187.48 198.08 C 189.41 195.05 192.56 193.23 195.94 192.23 C 195.83 192.07 195.62 191.75 195.51 191.59 C 194.08 191.85 192.62 192.09 191.19 192.32 Z" />
<path fill="#ffffff" d=" M 202.10 192.37 C 204.12 194.58 204.89 197.51 205.16 200.43 C 204.48 199.27 203.83 198.12 203.18 196.95 C 203.45 200.19 203.41 203.49 202.09 206.53 C 201.77 205.13 201.59 203.70 201.42 202.28 L 200.40 202.56 C 200.46 201.93 200.58 200.67 200.64 200.04 C 197.80 197.91 201.71 194.80 202.10 192.37 Z" />
<path fill="#4e6297" d=" M 192.37 195.20 C 192.76 195.84 192.76 195.84 192.37 195.20 Z" />
</svg>
