<?xml version="1.0" encoding="UTF-8" ?>
<!DOCTYPE svg PUBLIC "-//W3C//DTD SVG 1.1//EN" "http://www.w3.org/Graphics/SVG/1.1/DTD/svg11.dtd">
<svg width="128pt" height="128pt" viewBox="0 0 128 128" version="1.1" xmlns="http://www.w3.org/2000/svg">
<path fill="#ffffff" d=" M 0.00 0.00 L 128.00 0.00 L 128.00 128.00 L 0.00 128.00 L 0.00 0.00 Z" />
<path fill="#929292" d=" M 37.08 34.17 C 40.27 21.37 52.83 11.79 66.00 11.99 C 78.89 11.81 91.14 20.96 94.71 33.34 C 97.11 40.49 95.14 48.14 96.43 55.42 C 101.49 57.18 107.30 60.03 107.73 66.14 C 108.46 77.40 107.72 88.71 108.04 99.99 C 107.91 105.35 108.89 111.63 104.94 115.94 C 102.06 119.44 97.31 120.15 93.04 120.05 C 74.68 119.96 56.31 120.00 37.94 120.03 C 33.98 120.09 29.70 119.13 27.06 115.95 C 24.28 113.05 23.93 108.85 23.94 105.04 C 24.01 94.02 24.05 83.00 23.94 71.98 C 23.95 68.08 23.98 63.76 26.59 60.58 C 28.74 57.65 32.53 57.01 35.58 55.43 C 36.81 48.41 35.04 41.10 37.08 34.17 Z" />
<path fill="#ffffff" d=" M 48.61 37.55 C 50.26 30.04 57.39 24.33 65.02 24.04 C 73.05 23.47 81.04 29.02 83.17 36.80 C 84.53 43.01 84.20 49.49 83.79 55.80 C 77.88 56.36 71.93 55.87 66.00 55.99 C 60.07 55.87 54.12 56.36 48.21 55.80 C 47.76 49.74 47.59 43.55 48.61 37.55 Z" />
<path fill="#ffffff" d=" M 60.53 79.62 C 62.26 74.93 69.73 74.93 71.46 79.61 C 73.28 83.26 69.39 85.99 68.32 89.16 C 67.77 92.64 68.14 96.20 67.56 99.68 C 66.52 99.77 65.47 99.78 64.42 99.73 C 63.88 96.23 64.24 92.66 63.68 89.16 C 62.60 85.99 58.71 83.27 60.53 79.62 Z" />
</svg>
