<?xml version="1.0" encoding="UTF-8" ?>
<!DOCTYPE svg PUBLIC "-//W3C//DTD SVG 1.1//EN" "http://www.w3.org/Graphics/SVG/1.1/DTD/svg11.dtd">
<svg width="1024pt" height="1024pt" viewBox="0 0 1024 1024" version="1.1" xmlns="http://www.w3.org/2000/svg">
<path fill="#ffffff" d=" M 0.00 0.00 L 1024.00 0.00 L 1024.00 1024.00 L 0.00 1024.00 L 0.00 0.00 Z" />
<path fill="#afafaf" d=" M 409.22 63.00 C 409.57 49.96 420.95 38.45 433.98 37.97 C 485.66 37.97 537.35 38.02 589.03 37.95 C 597.29 37.98 605.17 42.41 609.95 49.06 C 613.60 53.89 614.89 60.05 614.90 66.00 C 614.88 77.00 614.82 88.00 614.92 99.00 C 614.96 103.79 614.49 108.73 612.40 113.10 C 608.93 120.84 601.35 126.68 592.98 128.01 C 583.11 128.17 573.22 127.82 563.35 128.16 C 563.60 137.62 563.53 147.10 563.40 156.56 C 629.99 165.24 694.33 191.14 748.11 231.38 C 755.20 224.99 761.78 217.92 768.58 211.19 C 764.87 203.73 764.71 194.39 768.75 187.02 C 771.03 182.45 775.02 179.12 778.53 175.53 C 782.29 171.92 785.74 167.98 789.76 164.65 C 796.13 159.60 804.99 157.65 812.83 159.98 C 818.17 161.30 822.69 164.69 826.45 168.59 C 840.89 183.16 855.51 197.55 869.93 212.14 C 876.70 218.81 879.56 229.18 876.68 238.31 C 874.92 245.40 869.12 250.24 864.19 255.19 C 860.07 259.08 856.48 263.58 851.81 266.85 C 846.90 270.07 840.87 271.59 835.03 271.00 C 831.91 270.56 828.98 269.38 825.96 268.61 C 823.90 269.52 822.54 271.44 820.94 272.94 C 816.66 277.29 812.32 281.57 808.06 285.92 C 850.51 333.21 881.44 390.89 896.97 452.54 C 919.65 541.05 910.54 637.41 871.20 719.95 C 837.54 791.29 782.09 852.15 714.15 892.25 C 679.81 912.67 642.33 927.76 603.46 936.95 C 543.04 951.16 479.23 951.23 418.90 936.52 C 349.46 920.03 284.93 883.94 234.01 833.98 C 182.65 783.66 145.12 719.27 127.33 649.56 C 115.43 603.75 112.17 555.81 116.97 508.77 C 125.27 426.96 160.20 348.22 214.99 286.91 C 243.60 254.71 277.41 227.09 314.83 205.72 C 359.57 179.96 409.43 163.29 460.59 156.55 C 460.47 147.09 460.40 137.61 460.64 128.16 C 450.77 127.81 440.88 128.20 431.00 127.99 C 419.05 126.16 409.33 115.11 409.18 102.96 C 409.11 89.64 409.02 76.31 409.22 63.00 Z" />
<path fill="#ffffff" d=" M 435.35 64.16 C 462.22 63.84 489.12 64.11 516.00 64.02 C 540.21 64.11 564.44 63.84 588.65 64.16 C 588.40 76.71 588.42 89.28 588.64 101.84 C 539.76 102.20 490.87 101.84 441.99 102.01 C 439.77 101.97 437.57 101.74 435.36 101.84 C 435.58 89.28 435.59 76.71 435.35 64.16 Z" />
<path fill="#ffffff" d=" M 486.61 128.20 C 503.52 127.90 520.47 127.90 537.39 128.20 C 536.96 136.55 537.05 144.95 537.30 153.30 C 520.45 153.01 503.55 153.01 486.69 153.30 C 486.95 144.95 487.04 136.55 486.61 128.20 Z" />
<path fill="#ffffff" d=" M 499.56 179.95 C 566.55 177.35 634.20 193.65 692.67 226.48 C 756.18 261.78 808.78 316.25 841.95 380.89 C 866.95 429.36 880.77 483.48 882.58 537.95 C 883.39 549.97 882.64 562.01 881.98 574.02 C 879.10 623.31 865.84 671.91 843.89 716.11 C 822.73 758.16 793.66 796.26 758.45 827.53 C 725.53 856.82 687.40 880.26 646.27 896.10 C 608.58 910.95 568.36 918.91 527.94 920.95 C 512.96 920.91 497.91 921.67 483.00 919.94 C 409.80 914.67 338.53 886.49 281.22 840.71 C 226.80 797.52 184.77 738.70 161.97 673.05 C 151.21 642.29 144.52 610.09 142.11 577.60 C 141.65 564.39 140.43 551.17 141.41 537.95 C 142.51 506.29 147.57 474.79 156.56 444.40 C 171.13 395.01 196.39 348.84 229.83 309.69 C 260.29 273.97 297.61 244.13 339.12 222.20 C 388.46 196.20 443.80 181.41 499.56 179.95 Z" />
<path fill="#ffffff" d=" M 792.12 199.15 C 796.80 194.64 801.38 190.01 805.92 185.36 C 820.85 200.68 836.31 215.58 851.22 230.89 C 846.59 235.44 842.05 240.10 837.43 244.63 C 822.45 229.36 807.11 214.37 792.12 199.15 Z" />
<path fill="#afafaf" d=" M 507.33 218.03 C 515.33 214.59 525.39 221.32 525.15 230.03 C 525.79 237.93 517.75 244.90 510.02 243.41 C 502.57 242.52 497.22 234.52 499.11 227.27 C 500.15 223.11 503.34 219.57 507.33 218.03 Z" />
<path fill="#afafaf" d=" M 425.25 228.77 C 433.14 225.72 442.50 232.71 442.41 241.02 C 442.64 248.08 436.26 255.04 428.99 254.32 C 421.81 254.73 415.62 248.01 415.91 240.98 C 416.04 235.49 419.96 230.30 425.25 228.77 Z" />
<path fill="#afafaf" d=" M 590.26 228.97 C 596.64 226.27 604.53 229.96 607.02 236.31 C 609.92 242.56 606.50 250.70 600.24 253.37 C 594.15 255.98 586.30 253.73 583.26 247.63 C 579.10 240.91 582.97 231.50 590.26 228.97 Z" />
<path fill="#ffffff" d=" M 769.11 247.96 C 774.72 242.12 780.70 236.58 786.19 230.64 C 786.71 232.25 788.32 232.49 789.34 233.66 C 794.87 239.39 800.74 245.03 806.18 250.69 C 800.53 255.81 795.26 261.38 789.89 266.80 C 783.14 260.34 776.27 253.95 769.11 247.96 Z" />
<path fill="#afafaf" d=" M 347.26 260.96 C 355.21 257.34 365.48 264.33 365.15 273.03 C 365.44 278.30 362.00 283.43 357.14 285.40 C 351.07 287.87 343.29 285.49 340.30 279.47 C 336.53 272.79 340.08 263.54 347.26 260.96 Z" />
<path fill="#afafaf" d=" M 667.27 260.97 C 675.24 257.40 685.45 264.32 685.15 273.03 C 685.60 280.10 679.15 286.80 672.00 286.26 C 665.22 286.77 658.92 280.73 658.86 274.00 C 658.26 268.39 662.12 262.94 667.27 260.97 Z" />
<path fill="#afafaf" d=" M 282.30 311.25 C 288.90 309.38 296.43 313.65 298.29 320.23 C 301.26 328.14 294.30 337.46 285.98 337.37 C 278.82 337.63 272.23 331.16 272.47 323.98 C 272.45 318.14 276.76 312.83 282.30 311.25 Z" />
<path fill="#afafaf" d=" M 735.29 311.18 C 743.16 309.07 751.71 315.89 751.47 324.01 C 751.68 331.17 745.18 337.65 738.02 337.36 C 729.70 337.48 722.72 328.12 725.70 320.23 C 726.96 315.75 730.89 312.40 735.29 311.18 Z" />
<path fill="#afafaf" d=" M 318.46 381.86 C 324.48 375.48 330.52 369.07 336.84 362.99 C 386.47 410.75 435.95 458.74 485.55 506.48 C 493.66 501.33 503.37 498.44 513.02 498.89 C 528.55 498.82 543.58 506.85 552.91 519.15 C 565.52 535.07 567.18 558.83 556.35 576.12 C 564.83 584.81 573.68 593.19 582.05 601.99 C 576.09 608.07 570.23 614.33 563.91 620.04 C 562.20 619.90 561.24 618.01 559.96 617.04 C 552.69 609.54 545.23 602.19 537.81 594.87 C 530.51 598.86 522.35 601.51 514.00 602.04 C 501.91 602.36 489.64 598.51 480.20 590.86 C 470.39 583.24 463.55 571.98 461.23 559.78 C 459.08 548.01 461.41 535.67 467.11 525.25 C 417.45 477.60 368.03 429.61 318.46 381.86 Z" />
<path fill="#afafaf" d=" M 230.31 378.00 C 236.67 375.45 244.52 378.92 247.02 385.27 C 249.66 391.07 247.17 398.70 241.54 401.75 C 236.49 404.62 229.31 404.17 225.41 399.55 C 221.85 396.17 221.14 390.86 222.26 386.27 C 223.67 382.60 226.59 379.41 230.31 378.00 Z" />
<path fill="#afafaf" d=" M 784.33 378.05 C 789.65 375.92 796.23 377.83 799.59 382.46 C 803.81 387.77 802.86 396.37 797.47 400.54 C 791.27 406.15 780.19 403.46 777.04 395.77 C 773.76 389.17 777.56 380.58 784.33 378.05 Z" />
<path fill="#afafaf" d=" M 198.30 455.21 C 202.91 453.84 208.49 454.36 211.96 457.99 C 216.99 462.50 217.59 470.95 213.04 476.02 C 208.11 482.47 197.04 482.23 192.44 475.51 C 187.02 468.97 190.28 457.93 198.30 455.21 Z" />
<path fill="#afafaf" d=" M 816.31 455.26 C 823.96 452.28 833.60 457.67 834.12 466.06 C 835.17 472.89 829.81 479.87 822.93 480.59 C 815.77 481.89 808.52 476.12 807.90 468.94 C 807.24 463.18 810.90 457.29 816.31 455.26 Z" />
<path fill="#ffffff" d=" M 508.40 525.47 C 516.49 524.19 525.16 527.33 530.64 533.42 C 539.42 542.49 539.18 558.43 530.55 567.53 C 525.90 572.77 518.93 575.43 512.05 575.82 C 504.44 575.35 496.69 572.21 492.09 565.91 C 487.11 559.89 486.08 551.55 487.54 544.08 C 489.86 534.39 498.55 526.77 508.40 525.47 Z" />
<path fill="#afafaf" d=" M 187.33 538.02 C 195.34 534.61 205.39 541.31 205.15 550.03 C 205.75 557.56 198.44 564.36 191.00 563.52 C 183.88 563.20 177.86 556.17 178.89 549.05 C 179.22 544.16 182.86 539.81 187.33 538.02 Z" />
<path fill="#afafaf" d=" M 827.33 538.02 C 835.31 534.62 845.40 541.29 845.14 550.01 C 845.73 557.18 839.11 563.78 832.00 563.57 C 825.25 563.76 818.83 557.81 818.86 551.00 C 818.34 545.40 822.22 540.03 827.33 538.02 Z" />
<path fill="#afafaf" d=" M 197.39 621.23 C 204.08 617.69 212.85 621.85 215.34 628.74 C 217.82 635.02 214.35 642.70 208.17 645.29 C 201.94 648.22 193.82 645.19 190.97 638.94 C 187.87 632.51 190.70 624.04 197.39 621.23 Z" />
<path fill="#afafaf" d=" M 816.30 620.98 C 824.26 617.26 834.56 624.31 834.16 633.00 C 834.79 640.53 827.43 647.32 819.99 646.38 C 813.57 646.07 808.18 640.34 807.88 634.00 C 807.41 628.42 811.15 622.97 816.30 620.98 Z" />
<path fill="#afafaf" d=" M 230.30 698.00 C 236.99 695.26 245.25 699.30 247.34 706.18 C 250.35 713.83 244.24 723.19 235.99 723.44 C 228.85 724.48 221.69 718.15 221.85 710.95 C 221.16 705.32 225.16 699.93 230.30 698.00 Z" />
<path fill="#afafaf" d=" M 784.34 698.06 C 791.18 695.17 799.39 699.43 801.73 706.28 C 802.94 711.09 801.99 716.75 798.03 720.07 C 792.27 725.72 781.51 724.28 777.70 717.07 C 773.41 710.39 777.05 700.77 784.34 698.06 Z" />
<path fill="#afafaf" d=" M 281.31 764.16 C 288.26 761.73 296.60 765.87 298.42 773.09 C 301.28 781.38 293.65 790.55 285.04 789.89 C 278.04 789.57 271.95 783.07 272.52 775.99 C 272.68 770.72 276.50 766.02 281.31 764.16 Z" />
<path fill="#afafaf" d=" M 735.24 763.90 C 742.92 761.69 751.23 768.11 751.45 775.99 C 752.30 784.42 743.25 791.87 735.14 789.44 C 727.78 787.97 722.87 779.17 725.88 772.21 C 727.25 768.03 730.94 764.80 735.24 763.90 Z" />
<path fill="#afafaf" d=" M 347.34 815.11 C 355.28 811.97 365.36 818.27 365.13 827.02 C 366.00 835.40 357.10 842.44 349.10 840.45 C 341.98 839.00 337.24 831.21 339.16 824.19 C 340.18 820.07 343.45 816.67 347.34 815.11 Z" />
<path fill="#afafaf" d=" M 667.34 815.10 C 673.89 812.54 681.81 816.12 684.35 822.64 C 687.33 829.90 682.62 838.92 674.85 840.37 C 667.20 842.47 658.68 835.92 658.86 827.98 C 658.33 822.37 662.22 817.07 667.34 815.10 Z" />
<path fill="#afafaf" d=" M 424.39 847.24 C 431.79 844.05 440.82 849.25 442.16 857.09 C 443.91 864.89 436.96 873.09 428.98 872.70 C 422.18 872.71 416.11 866.85 415.93 860.05 C 415.58 854.53 419.24 849.15 424.39 847.24 Z" />
<path fill="#afafaf" d=" M 590.32 847.08 C 596.94 844.56 605.09 848.39 607.26 855.16 C 610.14 862.17 605.19 870.79 597.87 872.31 C 590.14 874.55 581.59 867.98 581.58 859.99 C 581.15 854.34 585.11 848.98 590.32 847.08 Z" />
<path fill="#afafaf" d=" M 507.33 858.03 C 515.31 854.59 525.39 861.32 525.15 870.01 C 525.72 877.18 519.11 883.78 512.00 883.57 C 504.89 883.77 498.28 877.20 498.85 870.03 C 498.69 864.74 502.54 859.91 507.33 858.03 Z" />
</svg>
